STARTFONT 2.1
FONT -Adobe-New Century Schoolbook-Bold-I-Normal--14-140-75-75-P-88-ISO10646-1
SIZE 14 75 75
FONTBOUNDINGBOX 21 26 -3 -7
COMMENT $Xorg: $
COMMENT ISO10646-1 extension by Markus Kuhn <mkuhn@acm.org>, 2001-03-20
COMMENT 
COMMENT +
COMMENT  Copyright 1984-1989, 1994 Adobe Systems Incorporated.
COMMENT  Copyright 1988, 1994 Digital Equipment Corporation.
COMMENT
COMMENT  Adobe is a trademark of Adobe Systems Incorporated which may be
COMMENT  registered in certain jurisdictions.
COMMENT  Permission to use these trademarks is hereby granted only in
COMMENT  association with the images described in this file.
COMMENT
COMMENT  Permission to use, copy, modify, distribute and sell this software
COMMENT  and its documentation for any purpose and without fee is hereby
COMMENT  granted, provided that the above copyright notices appear in all
COMMENT  copies and that both those copyright notices and this permission
COMMENT  notice appear in supporting documentation, and that the names of
COMMENT  Adobe Systems and Digital Equipment Corporation not be used in
COMMENT  advertising or publicity pertaining to distribution of the software
COMMENT  without specific, written prior permission.  Adobe Systems and
COMMENT  Digital Equipment Corporation make no representations about the
COMMENT  suitability of this software for any purpose.  It is provided "as
COMMENT  is" without express or implied warranty.
COMMENT -
STARTPROPERTIES 26
FOUNDRY "Adobe"
FAMILY_NAME "New Century Schoolbook"
WEIGHT_NAME "Bold"
SLANT "I"
SETWIDTH_NAME "Normal"
ADD_STYLE_NAME ""
PIXEL_SIZE 14
POINT_SIZE 140
RESOLUTION_X 75
RESOLUTION_Y 75
SPACING "P"
AVERAGE_WIDTH 88
CHARSET_REGISTRY "ISO10646"
CHARSET_ENCODING "1"
CAP_HEIGHT 11
X_HEIGHT 7
FONT_ASCENT 13
FONT_DESCENT 3
FACE_NAME "New Century Schoolbook Bold Italic"
COPYRIGHT "Copyright (c) 1984, 1987 Adobe Systems Incorporated. All Rights Reserved. Copyright (c) 1988, 1991 Digital Equipment Corporation. All Rights Reserved."

STARTCHAR char0
ENCODING 0
SWIDTH 870 0
DWIDTH 12 0
BBX 11 11 0 0
BITMAP
AAA0
0000
8020
0000
8020
0000
8020
0000
8020
0000
AAA0
ENDCHAR
STARTCHAR space
ENCODING 32
SWIDTH 287 0
DWIDTH 4 0
BBX 1 1 0 0
BITMAP
00
ENDCHAR
STARTCHAR exclam
ENCODING 33
SWIDTH 333 0
DWIDTH 5 0
BBX 4 11 0 0
BITMAP
30
30
30
60
60
60
40
40
00
C0
C0
ENDCHAR
STARTCHAR quotedbl
ENCODING 34
SWIDTH 400 0
DWIDTH 6 0
BBX 3 4 1 7
BITMAP
A0
A0
A0
A0
ENDCHAR
STARTCHAR numbersign
ENCODING 35
SWIDTH 606 0
DWIDTH 8 0
BBX 7 10 0 0
BITMAP
14
14
14
7E
28
28
FC
50
50
50
ENDCHAR
STARTCHAR dollar
ENCODING 36
SWIDTH 574 0
DWIDTH 8 0
BBX 7 13 0 -1
BITMAP
04
1E
2A
48
68
70
38
1C
2C
24
A8
F0
40
ENDCHAR
STARTCHAR percent
ENCODING 37
SWIDTH 889 0
DWIDTH 13 0
BBX 12 11 0 0
BITMAP
3080
6F80
C900
C900
D200
6260
04D0
0590
0990
09A0
10C0
ENDCHAR
STARTCHAR ampersand
ENCODING 38
SWIDTH 889 0
DWIDTH 13 0
BBX 12 11 0 0
BITMAP
0E00
1300
3300
3200
1C00
38F0
5C40
CE80
C700
E790
79E0
ENDCHAR
STARTCHAR quotesingle
ENCODING 39
SWIDTH 287 0
DWIDTH 4 0
BBX 2 4 1 7
BITMAP
C0
C0
C0
80
ENDCHAR
STARTCHAR parenleft
ENCODING 40
SWIDTH 407 0
DWIDTH 5 0
BBX 5 13 0 -2
BITMAP
08
10
30
60
60
C0
C0
C0
C0
C0
C0
40
20
ENDCHAR
STARTCHAR parenright
ENCODING 41
SWIDTH 407 0
DWIDTH 6 0
BBX 5 13 -1 -2
BITMAP
20
10
18
18
18
18
18
18
30
30
60
40
80
ENDCHAR
STARTCHAR asterisk
ENCODING 42
SWIDTH 500 0
DWIDTH 7 0
BBX 5 5 1 6
BITMAP
10
A8
70
A8
40
ENDCHAR
STARTCHAR plus
ENCODING 43
SWIDTH 606 0
DWIDTH 8 0
BBX 7 7 0 1
BITMAP
10
10
10
FE
10
10
10
ENDCHAR
STARTCHAR comma
ENCODING 44
SWIDTH 287 0
DWIDTH 4 0
BBX 3 5 0 -3
BITMAP
60
60
20
40
80
ENDCHAR
STARTCHAR hyphen
ENCODING 45
SWIDTH 333 0
DWIDTH 5 0
BBX 4 2 0 3
BITMAP
F0
F0
ENDCHAR
STARTCHAR period
ENCODING 46
SWIDTH 287 0
DWIDTH 3 0
BBX 2 2 0 0
BITMAP
C0
C0
ENDCHAR
STARTCHAR slash
ENCODING 47
SWIDTH 278 0
DWIDTH 5 0
BBX 4 11 0 0
BITMAP
10
10
30
20
20
60
40
40
C0
80
80
ENDCHAR
STARTCHAR zero
ENCODING 48
SWIDTH 574 0
DWIDTH 8 0
BBX 7 11 0 0
BITMAP
1C
36
66
66
66
CC
CC
CC
CC
D8
70
ENDCHAR
STARTCHAR one
ENCODING 49
SWIDTH 574 0
DWIDTH 8 0
BBX 6 11 0 0
BITMAP
0C
3C
0C
0C
18
18
18
30
30
30
FC
ENDCHAR
STARTCHAR two
ENCODING 50
SWIDTH 574 0
DWIDTH 8 0
BBX 7 11 0 0
BITMAP
3C
66
66
06
0C
18
30
60
C2
FC
FC
ENDCHAR
STARTCHAR three
ENCODING 51
SWIDTH 574 0
DWIDTH 8 0
BBX 7 11 0 0
BITMAP
1C
26
66
04
18
0C
0C
0C
CC
D8
70
ENDCHAR
STARTCHAR four
ENCODING 52
SWIDTH 574 0
DWIDTH 8 0
BBX 7 11 0 0
BITMAP
06
0E
16
26
2C
4C
8C
FE
18
18
7E
ENDCHAR
STARTCHAR five
ENCODING 53
SWIDTH 574 0
DWIDTH 8 0
BBX 7 11 0 0
BITMAP
3E
3C
20
40
78
0C
0C
0C
CC
D8
70
ENDCHAR
STARTCHAR six
ENCODING 54
SWIDTH 574 0
DWIDTH 8 0
BBX 7 11 0 0
BITMAP
1C
36
66
60
78
CC
CC
CC
CC
D8
70
ENDCHAR
STARTCHAR seven
ENCODING 55
SWIDTH 574 0
DWIDTH 8 0
BBX 7 11 0 0
BITMAP
7E
7E
84
0C
18
18
30
30
60
60
60
ENDCHAR
STARTCHAR eight
ENCODING 56
SWIDTH 574 0
DWIDTH 8 0
BBX 7 11 0 0
BITMAP
1C
32
22
32
3C
3C
4C
C4
C4
CC
78
ENDCHAR
STARTCHAR nine
ENCODING 57
SWIDTH 574 0
DWIDTH 8 0
BBX 7 11 0 0
BITMAP
1C
36
66
66
66
66
3C
0C
CC
D8
70
ENDCHAR
STARTCHAR colon
ENCODING 58
SWIDTH 287 0
DWIDTH 4 0
BBX 3 7 0 0
BITMAP
60
60
00
00
00
C0
C0
ENDCHAR
STARTCHAR semicolon
ENCODING 59
SWIDTH 287 0
DWIDTH 5 0
BBX 4 10 0 -3
BITMAP
30
30
00
00
00
60
60
20
40
80
ENDCHAR
STARTCHAR less
ENCODING 60
SWIDTH 606 0
DWIDTH 9 0
BBX 8 9 0 0
BITMAP
01
07
1C
70
C0
70
1C
07
01
ENDCHAR
STARTCHAR equal
ENCODING 61
SWIDTH 606 0
DWIDTH 9 0
BBX 8 4 0 3
BITMAP
FF
00
00
FF
ENDCHAR
STARTCHAR greater
ENCODING 62
SWIDTH 606 0
DWIDTH 9 0
BBX 8 9 0 0
BITMAP
80
E0
38
0E
03
0E
38
E0
80
ENDCHAR
STARTCHAR question
ENCODING 63
SWIDTH 481 0
DWIDTH 7 0
BBX 6 11 0 0
BITMAP
38
4C
4C
18
30
60
48
30
00
C0
C0
ENDCHAR
STARTCHAR at
ENCODING 64
SWIDTH 747 0
DWIDTH 13 0
BBX 12 11 0 0
BITMAP
0FC0
3020
4D90
5B90
B190
B320
B720
9BC0
8000
4040
3F80
ENDCHAR
STARTCHAR A
ENCODING 65
SWIDTH 741 0
DWIDTH 11 0
BBX 11 11 -1 0
BITMAP
0300
0300
0700
0580
0980
0980
1180
1FC0
20C0
60C0
F1E0
ENDCHAR
STARTCHAR B
ENCODING 66
SWIDTH 759 0
DWIDTH 10 0
BBX 9 11 0 0
BITMAP
7F00
3180
3180
3180
3300
7E00
6180
6180
6180
6300
FE00
ENDCHAR
STARTCHAR C
ENCODING 67
SWIDTH 759 0
DWIDTH 11 0
BBX 10 11 0 0
BITMAP
0F40
30C0
6040
6040
C000
C000
C000
C000
C080
6180
3E00
ENDCHAR
STARTCHAR D
ENCODING 68
SWIDTH 833 0
DWIDTH 12 0
BBX 11 11 0 0
BITMAP
7F80
30C0
3060
3060
3060
6060
6060
60C0
60C0
6180
FE00
ENDCHAR
STARTCHAR E
ENCODING 69
SWIDTH 741 0
DWIDTH 10 0
BBX 9 11 0 0
BITMAP
7F80
3080
3080
3200
3200
7E00
6200
6200
6100
6100
FF00
ENDCHAR
STARTCHAR F
ENCODING 70
SWIDTH 704 0
DWIDTH 10 0
BBX 9 11 0 0
BITMAP
7F80
3080
3080
3200
3200
7E00
6200
6200
6000
6000
F000
ENDCHAR
STARTCHAR G
ENCODING 71
SWIDTH 815 0
DWIDTH 11 0
BBX 10 11 0 0
BITMAP
0F40
30C0
6040
6040
C000
C000
C7C0
C180
C180
6300
3D00
ENDCHAR
STARTCHAR H
ENCODING 72
SWIDTH 870 0
DWIDTH 12 0
BBX 11 11 0 0
BITMAP
79E0
30C0
30C0
30C0
30C0
7F80
6180
6180
6180
6180
F3C0
ENDCHAR
STARTCHAR I
ENCODING 73
SWIDTH 444 0
DWIDTH 6 0
BBX 5 11 0 0
BITMAP
78
30
30
30
30
60
60
60
60
60
F0
ENDCHAR
STARTCHAR J
ENCODING 74
SWIDTH 667 0
DWIDTH 8 0
BBX 8 11 -1 0
BITMAP
0F
06
06
06
06
0C
0C
0C
CC
C8
70
ENDCHAR
STARTCHAR K
ENCODING 75
SWIDTH 778 0
DWIDTH 12 0
BBX 11 11 0 0
BITMAP
79E0
3080
3100
3200
3400
3E00
7700
6300
6380
61C0
F3E0
ENDCHAR
STARTCHAR L
ENCODING 76
SWIDTH 704 0
DWIDTH 10 0
BBX 9 11 0 0
BITMAP
7800
3000
3000
3000
3000
6000
6000
6000
6080
6080
FF80
ENDCHAR
STARTCHAR M
ENCODING 77
SWIDTH 944 0
DWIDTH 15 0
BBX 14 11 0 0
BITMAP
783C
3838
3858
2C58
2C98
2C98
6D30
4730
4630
4630
E678
ENDCHAR
STARTCHAR N
ENCODING 78
SWIDTH 852 0
DWIDTH 13 0
BBX 12 11 0 0
BITMAP
7870
3820
3C20
2C20
2E60
2740
6340
43C0
41C0
41C0
E0C0
ENDCHAR
STARTCHAR O
ENCODING 79
SWIDTH 833 0
DWIDTH 12 0
BBX 11 11 0 0
BITMAP
0F80
30C0
6060
6060
C060
C060
C060
C0C0
C0C0
6180
3E00
ENDCHAR
STARTCHAR P
ENCODING 80
SWIDTH 741 0
DWIDTH 11 0
BBX 10 11 0 0
BITMAP
7F80
30C0
30C0
30C0
3180
3F00
6000
6000
6000
6000
F000
ENDCHAR
STARTCHAR Q
ENCODING 81
SWIDTH 833 0
DWIDTH 12 0
BBX 11 13 0 -2
BITMAP
0F80
30C0
6060
6060
C060
C060
C060
DCC0
E6C0
6380
3F20
03C0
0180
ENDCHAR
STARTCHAR R
ENCODING 82
SWIDTH 796 0
DWIDTH 12 0
BBX 11 11 0 0
BITMAP
7F80
30C0
30C0
30C0
3180
3E00
6300
6300
6180
61A0
F1C0
ENDCHAR
STARTCHAR S
ENCODING 83
SWIDTH 685 0
DWIDTH 10 0
BBX 9 11 0 0
BITMAP
1E80
7180
6080
6080
7800
3E00
0F00
8300
8300
C700
BC00
ENDCHAR
STARTCHAR T
ENCODING 84
SWIDTH 722 0
DWIDTH 11 0
BBX 10 11 0 0
BITMAP
FFC0
8C40
8C40
0C00
0C00
1800
1800
1800
1800
1800
3C00
ENDCHAR
STARTCHAR U
ENCODING 85
SWIDTH 833 0
DWIDTH 12 0
BBX 10 11 1 0
BITMAP
F1C0
6080
6080
6080
6080
C180
C100
C100
C100
E300
7E00
ENDCHAR
STARTCHAR V
ENCODING 86
SWIDTH 741 0
DWIDTH 11 0
BBX 11 11 0 0
BITMAP
F9E0
60C0
6080
6100
3100
3200
3200
3400
1C00
1800
1800
ENDCHAR
STARTCHAR W
ENCODING 87
SWIDTH 944 0
DWIDTH 15 0
BBX 16 11 0 0
BITMAP
FBCF
6186
6184
6388
6388
34D0
34D0
38E0
38E0
30C0
30C0
ENDCHAR
STARTCHAR X
ENCODING 88
SWIDTH 741 0
DWIDTH 11 0
BBX 12 11 -1 0
BITMAP
3CF0
1860
0C80
0D00
0600
0600
0B00
1300
2180
6180
F3C0
ENDCHAR
STARTCHAR Y
ENCODING 89
SWIDTH 704 0
DWIDTH 9 0
BBX 10 11 0 0
BITMAP
F1C0
6080
3100
3200
1C00
1800
1800
3000
3000
3000
7800
ENDCHAR
STARTCHAR Z
ENCODING 90
SWIDTH 704 0
DWIDTH 10 0
BBX 9 11 0 0
BITMAP
7F80
4180
4380
0700
0E00
1C00
3800
7000
E100
C100
FF00
ENDCHAR
STARTCHAR bracketleft
ENCODING 91
SWIDTH 407 0
DWIDTH 7 0
BBX 6 13 0 -2
BITMAP
3C
30
30
30
60
60
60
60
C0
C0
C0
C0
F0
ENDCHAR
STARTCHAR backslash
ENCODING 92
SWIDTH 606 0
DWIDTH 9 0
BBX 6 11 1 0
BITMAP
80
C0
40
60
20
30
10
18
08
0C
04
ENDCHAR
STARTCHAR bracketright
ENCODING 93
SWIDTH 407 0
DWIDTH 7 0
BBX 6 13 0 -2
BITMAP
3C
0C
0C
0C
18
18
18
18
30
30
30
30
F0
ENDCHAR
STARTCHAR asciicircum
ENCODING 94
SWIDTH 606 0
DWIDTH 8 0
BBX 7 7 0 4
BITMAP
10
10
38
28
6C
44
C6
ENDCHAR
STARTCHAR underscore
ENCODING 95
SWIDTH 500 0
DWIDTH 7 0
BBX 7 1 0 -2
BITMAP
FE
ENDCHAR
STARTCHAR grave
ENCODING 96
SWIDTH 333 0
DWIDTH 5 0
BBX 4 3 0 8
BITMAP
C0
60
10
ENDCHAR
STARTCHAR a
ENCODING 97
SWIDTH 667 0
DWIDTH 10 0
BBX 9 7 0 0
BITMAP
3B00
6700
C300
C600
C600
CE80
7700
ENDCHAR
STARTCHAR b
ENCODING 98
SWIDTH 611 0
DWIDTH 8 0
BBX 7 11 0 0
BITMAP
70
30
30
60
7C
66
C6
C6
C6
CC
78
ENDCHAR
STARTCHAR c
ENCODING 99
SWIDTH 537 0
DWIDTH 8 0
BBX 7 7 0 0
BITMAP
3C
66
C6
C0
C0
C4
78
ENDCHAR
STARTCHAR d
ENCODING 100
SWIDTH 667 0
DWIDTH 10 0
BBX 9 11 0 0
BITMAP
0380
0180
0180
0300
3B00
6700
C300
C600
C600
CE80
7700
ENDCHAR
STARTCHAR e
ENCODING 101
SWIDTH 519 0
DWIDTH 8 0
BBX 7 7 0 0
BITMAP
3C
66
C6
FC
C0
C4
78
ENDCHAR
STARTCHAR f
ENCODING 102
SWIDTH 389 0
DWIDTH 5 0
BBX 7 14 0 -3
BITMAP
0E
16
30
30
F8
60
60
60
60
C0
C0
C0
C0
80
ENDCHAR
STARTCHAR g
ENCODING 103
SWIDTH 611 0
DWIDTH 8 0
BBX 9 12 -1 -3
BITMAP
0180
0380
1E00
2300
6300
6200
3C00
4000
7E00
7F00
8300
FC00
ENDCHAR
STARTCHAR h
ENCODING 104
SWIDTH 685 0
DWIDTH 10 0
BBX 9 11 0 0
BITMAP
7000
3000
3000
6000
6600
6F00
7300
C300
C600
C680
C700
ENDCHAR
STARTCHAR i
ENCODING 105
SWIDTH 389 0
DWIDTH 5 0
BBX 4 10 0 0
BITMAP
30
30
00
E0
60
60
C0
C0
D0
E0
ENDCHAR
STARTCHAR j
ENCODING 106
SWIDTH 370 0
DWIDTH 4 0
BBX 7 13 -3 -3
BITMAP
06
06
00
1C
0C
0C
0C
18
18
18
18
D0
E0
ENDCHAR
STARTCHAR k
ENCODING 107
SWIDTH 648 0
DWIDTH 9 0
BBX 8 11 0 0
BITMAP
70
30
30
60
6F
73
66
F8
CC
CF
C6
ENDCHAR
STARTCHAR l
ENCODING 108
SWIDTH 389 0
DWIDTH 5 0
BBX 4 11 0 0
BITMAP
70
30
30
60
60
60
60
C0
C0
D0
E0
ENDCHAR
STARTCHAR m
ENCODING 109
SWIDTH 944 0
DWIDTH 15 0
BBX 14 7 0 0
BITMAP
E630
6F78
7398
6318
C630
C634
C638
ENDCHAR
STARTCHAR n
ENCODING 110
SWIDTH 685 0
DWIDTH 10 0
BBX 9 7 0 0
BITMAP
E600
6F00
7300
6300
C600
C680
C700
ENDCHAR
STARTCHAR o
ENCODING 111
SWIDTH 574 0
DWIDTH 8 0
BBX 7 7 0 0
BITMAP
3C
66
C6
C6
C6
CC
78
ENDCHAR
STARTCHAR p
ENCODING 112
SWIDTH 648 0
DWIDTH 8 0
BBX 9 10 -2 -3
BITMAP
3B00
1D80
1980
3180
3180
3300
3E00
6000
6000
F000
ENDCHAR
STARTCHAR q
ENCODING 113
SWIDTH 630 0
DWIDTH 9 0
BBX 8 10 0 -3
BITMAP
3D
67
C3
C3
C6
CE
76
0C
0C
1E
ENDCHAR
STARTCHAR r
ENCODING 114
SWIDTH 519 0
DWIDTH 7 0
BBX 7 7 0 0
BITMAP
EE
76
60
60
C0
C0
C0
ENDCHAR
STARTCHAR s
ENCODING 115
SWIDTH 481 0
DWIDTH 8 0
BBX 7 7 0 0
BITMAP
1E
66
60
38
0C
CC
F0
ENDCHAR
STARTCHAR t
ENCODING 116
SWIDTH 407 0
DWIDTH 5 0
BBX 5 9 0 0
BITMAP
60
60
F8
60
60
C0
C0
D0
E0
ENDCHAR
STARTCHAR u
ENCODING 117
SWIDTH 685 0
DWIDTH 10 0
BBX 9 7 0 0
BITMAP
E300
6300
6300
C600
CE00
F680
6700
ENDCHAR
STARTCHAR v
ENCODING 118
SWIDTH 556 0
DWIDTH 8 0
BBX 7 7 0 0
BITMAP
E6
66
62
C2
C4
CC
78
ENDCHAR
STARTCHAR w
ENCODING 119
SWIDTH 833 0
DWIDTH 13 0
BBX 12 7 0 0
BITMAP
E330
6330
6310
C610
C620
CE60
73C0
ENDCHAR
STARTCHAR x
ENCODING 120
SWIDTH 574 0
DWIDTH 9 0
BBX 8 7 0 0
BITMAP
33
77
18
18
19
EE
CC
ENDCHAR
STARTCHAR y
ENCODING 121
SWIDTH 519 0
DWIDTH 9 0
BBX 9 10 -1 -3
BITMAP
6180
7180
B100
1A00
1A00
0C00
0C00
0800
D000
E000
ENDCHAR
STARTCHAR z
ENCODING 122
SWIDTH 519 0
DWIDTH 9 0
BBX 8 7 0 0
BITMAP
3B
7E
44
08
31
7E
9C
ENDCHAR
STARTCHAR braceleft
ENCODING 123
SWIDTH 407 0
DWIDTH 6 0
BBX 5 13 0 -2
BITMAP
08
10
30
30
30
20
C0
60
60
60
60
60
30
ENDCHAR
STARTCHAR bar
ENCODING 124
SWIDTH 606 0
DWIDTH 8 0
BBX 1 11 3 0
BITMAP
80
80
80
80
80
80
80
80
80
80
80
ENDCHAR
STARTCHAR braceright
ENCODING 125
SWIDTH 407 0
DWIDTH 6 0
BBX 5 13 0 -2
BITMAP
60
30
30
30
30
18
20
60
60
60
60
40
80
ENDCHAR
STARTCHAR asciitilde
ENCODING 126
SWIDTH 606 0
DWIDTH 11 0
BBX 10 3 0 3
BITMAP
38C0
7F80
C700
ENDCHAR
STARTCHAR space
ENCODING 160
SWIDTH 287 0
DWIDTH 4 0
BBX 1 1 0 0
BITMAP
00
ENDCHAR
STARTCHAR exclamdown
ENCODING 161
SWIDTH 333 0
DWIDTH 5 0
BBX 4 11 -1 -3
BITMAP
30
30
00
20
20
60
60
60
C0
C0
C0
ENDCHAR
STARTCHAR cent
ENCODING 162
SWIDTH 574 0
DWIDTH 8 0
BBX 7 9 0 -1
BITMAP
04
3C
6E
D6
D0
D0
E4
78
40
ENDCHAR
STARTCHAR sterling
ENCODING 163
SWIDTH 574 0
DWIDTH 10 0
BBX 9 11 0 0
BITMAP
0700
0980
1980
1800
1800
7F00
1800
1800
7080
BF00
DE00
ENDCHAR
STARTCHAR currency
ENCODING 164
SWIDTH 574 0
DWIDTH 8 0
BBX 7 7 0 2
BITMAP
BA
6C
C6
C6
C6
6C
BA
ENDCHAR
STARTCHAR yen
ENCODING 165
SWIDTH 574 0
DWIDTH 10 0
BBX 10 11 0 0
BITMAP
F1C0
6080
3100
3200
1C00
7F00
1800
FE00
3000
3000
7800
ENDCHAR
STARTCHAR brokenbar
ENCODING 166
SWIDTH 606 0
DWIDTH 8 0
BBX 1 11 3 0
BITMAP
80
80
80
80
00
00
80
80
80
80
80
ENDCHAR
STARTCHAR section
ENCODING 167
SWIDTH 500 0
DWIDTH 9 0
BBX 8 13 0 -2
BITMAP
1E
33
33
18
3C
4E
67
73
3A
1C
CC
CC
78
ENDCHAR
STARTCHAR dieresis
ENCODING 168
SWIDTH 333 0
DWIDTH 6 0
BBX 4 2 0 8
BITMAP
90
90
ENDCHAR
STARTCHAR copyright
ENCODING 169
SWIDTH 747 0
DWIDTH 12 0
BBX 11 11 0 0
BITMAP
1F00
60C0
4F40
9920
9020
9020
9920
8E20
4040
60C0
1F00
ENDCHAR
STARTCHAR ordfeminine
ENCODING 170
SWIDTH 412 0
DWIDTH 8 0
BBX 7 8 0 3
BITMAP
36
4E
C6
CC
DC
6E
00
FE
ENDCHAR
STARTCHAR guillemotleft
ENCODING 171
SWIDTH 481 0
DWIDTH 10 0
BBX 9 6 0 1
BITMAP
0880
3300
6600
CC00
4400
2200
ENDCHAR
STARTCHAR logicalnot
ENCODING 172
SWIDTH 606 0
DWIDTH 9 0
BBX 8 4 0 3
BITMAP
FF
01
01
01
ENDCHAR
STARTCHAR hyphen
ENCODING 173
SWIDTH 333 0
DWIDTH 5 0
BBX 4 2 0 3
BITMAP
F0
F0
ENDCHAR
STARTCHAR registered
ENCODING 174
SWIDTH 747 0
DWIDTH 12 0
BBX 11 11 0 0
BITMAP
1F00
60C0
5E40
9220
9220
9C20
9620
9320
4040
60C0
1F00
ENDCHAR
STARTCHAR macron
ENCODING 175
SWIDTH 333 0
DWIDTH 6 0
BBX 5 1 0 8
BITMAP
F8
ENDCHAR
STARTCHAR degree
ENCODING 176
SWIDTH 400 0
DWIDTH 6 0
BBX 4 4 1 7
BITMAP
60
90
90
60
ENDCHAR
STARTCHAR plusminus
ENCODING 177
SWIDTH 606 0
DWIDTH 8 0
BBX 7 7 0 1
BITMAP
10
10
FE
10
10
00
FE
ENDCHAR
STARTCHAR twosuperior
ENCODING 178
SWIDTH 344 0
DWIDTH 5 0
BBX 5 6 0 5
BITMAP
70
58
30
60
C0
F8
ENDCHAR
STARTCHAR threesuperior
ENCODING 179
SWIDTH 344 0
DWIDTH 5 0
BBX 6 6 -1 5
BITMAP
38
0C
38
18
98
70
ENDCHAR
STARTCHAR acute
ENCODING 180
SWIDTH 333 0
DWIDTH 5 0
BBX 4 3 0 8
BITMAP
30
60
80
ENDCHAR
STARTCHAR mu
ENCODING 181
SWIDTH 576 0
DWIDTH 10 0
BBX 10 10 -1 -3
BITMAP
7180
3180
3180
6300
6700
7B40
7380
8000
C000
C000
ENDCHAR
STARTCHAR paragraph
ENCODING 182
SWIDTH 650 0
DWIDTH 9 0
BBX 8 11 0 0
BITMAP
7F
EA
CA
CA
CA
74
14
14
14
14
3E
ENDCHAR
STARTCHAR periodcentered
ENCODING 183
SWIDTH 287 0
DWIDTH 5 0
BBX 2 3 1 3
BITMAP
C0
C0
C0
ENDCHAR
STARTCHAR cedilla
ENCODING 184
SWIDTH 333 0
DWIDTH 5 0
BBX 3 3 0 -3
BITMAP
40
20
E0
ENDCHAR
STARTCHAR onesuperior
ENCODING 185
SWIDTH 344 0
DWIDTH 5 0
BBX 3 6 1 5
BITMAP
20
E0
60
40
40
E0
ENDCHAR
STARTCHAR ordmasculine
ENCODING 186
SWIDTH 356 0
DWIDTH 8 0
BBX 7 8 0 3
BITMAP
3C
66
C6
C6
CC
78
00
FE
ENDCHAR
STARTCHAR guillemotright
ENCODING 187
SWIDTH 481 0
DWIDTH 10 0
BBX 9 6 0 1
BITMAP
2200
1100
1980
3300
6600
8800
ENDCHAR
STARTCHAR onequarter
ENCODING 188
SWIDTH 861 0
DWIDTH 12 0
BBX 11 11 0 0
BITMAP
2100
E100
6200
4200
4400
E4C0
09C0
0AC0
1480
17E0
2180
ENDCHAR
STARTCHAR onehalf
ENCODING 189
SWIDTH 861 0
DWIDTH 12 0
BBX 11 11 0 0
BITMAP
2100
E100
6200
4200
4400
E5C0
0960
08C0
1180
1300
23E0
ENDCHAR
STARTCHAR threequarters
ENCODING 190
SWIDTH 861 0
DWIDTH 12 0
BBX 12 11 -1 0
BITMAP
3880
0C80
3900
1100
9A00
7260
04E0
0560
0A40
0BF0
10C0
ENDCHAR
STARTCHAR questiondown
ENCODING 191
SWIDTH 481 0
DWIDTH 7 0
BBX 6 11 -1 -3
BITMAP
0C
0C
00
30
48
18
30
60
C8
C8
70
ENDCHAR
STARTCHAR Agrave
ENCODING 192
SWIDTH 741 0
DWIDTH 11 0
BBX 11 15 -1 0
BITMAP
0C00
0600
0100
0000
0300
0300
0700
0580
0980
0980
1180
1FC0
20C0
60C0
F1E0
ENDCHAR
STARTCHAR Aacute
ENCODING 193
SWIDTH 741 0
DWIDTH 11 0
BBX 11 15 -1 0
BITMAP
00C0
0180
0200
0000
0300
0300
0700
0580
0980
0980
1180
1FC0
20C0
60C0
F1E0
ENDCHAR
STARTCHAR Acircumflex
ENCODING 194
SWIDTH 741 0
DWIDTH 11 0
BBX 11 15 -1 0
BITMAP
0100
0380
06C0
0000
0300
0300
0700
0580
0980
0980
1180
1FC0
20C0
60C0
F1E0
ENDCHAR
STARTCHAR Atilde
ENCODING 195
SWIDTH 741 0
DWIDTH 11 0
BBX 11 14 -1 0
BITMAP
0740
0B80
0000
0300
0300
0700
0580
0980
0980
1180
1FC0
20C0
60C0
F1E0
ENDCHAR
STARTCHAR Adieresis
ENCODING 196
SWIDTH 741 0
DWIDTH 11 0
BBX 11 14 -1 0
BITMAP
0480
0480
0000
0300
0300
0700
0580
0980
0980
1180
1FC0
20C0
60C0
F1E0
ENDCHAR
STARTCHAR Aring
ENCODING 197
SWIDTH 741 0
DWIDTH 11 0
BBX 11 15 -1 0
BITMAP
0300
0480
0480
0300
0200
0300
0700
0500
0980
0980
1180
1FC0
20C0
60C0
F1E0
ENDCHAR
STARTCHAR AE
ENCODING 198
SWIDTH 889 0
DWIDTH 14 0
BBX 14 11 -1 0
BITMAP
0FFC
0584
0D84
0990
1990
11F0
3F10
2310
6304
4304
E7FC
ENDCHAR
STARTCHAR Ccedilla
ENCODING 199
SWIDTH 759 0
DWIDTH 11 0
BBX 10 14 0 -3
BITMAP
0F40
30C0
6040
6040
C000
C000
C000
C000
C080
6180
3E00
0800
0400
1C00
ENDCHAR
STARTCHAR Egrave
ENCODING 200
SWIDTH 741 0
DWIDTH 10 0
BBX 9 15 0 0
BITMAP
3000
1800
0400
0000
7F80
3080
3080
3200
3200
7E00
6200
6200
6100
6100
FF00
ENDCHAR
STARTCHAR Eacute
ENCODING 201
SWIDTH 741 0
DWIDTH 10 0
BBX 9 15 0 0
BITMAP
0300
0600
0800
0000
7F80
3080
3080
3200
3200
7E00
6200
6200
6100
6100
FF00
ENDCHAR
STARTCHAR Ecircumflex
ENCODING 202
SWIDTH 741 0
DWIDTH 10 0
BBX 9 15 0 0
BITMAP
0400
0E00
1B00
0000
7F80
3080
3080
3200
3200
7E00
6200
6200
6100
6100
FF00
ENDCHAR
STARTCHAR Edieresis
ENCODING 203
SWIDTH 741 0
DWIDTH 10 0
BBX 9 14 0 0
BITMAP
1200
1200
0000
7F80
3080
3080
3200
3200
7E00
6200
6200
6100
6100
FF00
ENDCHAR
STARTCHAR Igrave
ENCODING 204
SWIDTH 444 0
DWIDTH 6 0
BBX 5 15 0 0
BITMAP
C0
60
10
00
78
30
30
30
30
60
60
60
60
60
F0
ENDCHAR
STARTCHAR Iacute
ENCODING 205
SWIDTH 444 0
DWIDTH 6 0
BBX 6 15 0 0
BITMAP
0C
18
20
00
78
30
30
30
30
60
60
60
60
60
F0
ENDCHAR
STARTCHAR Icircumflex
ENCODING 206
SWIDTH 444 0
DWIDTH 6 0
BBX 6 15 0 0
BITMAP
10
38
6C
00
78
30
30
30
30
60
60
60
60
60
F0
ENDCHAR
STARTCHAR Idieresis
ENCODING 207
SWIDTH 444 0
DWIDTH 6 0
BBX 5 14 0 0
BITMAP
48
48
00
78
30
30
30
30
60
60
60
60
60
F0
ENDCHAR
STARTCHAR Eth
ENCODING 208
SWIDTH 833 0
DWIDTH 12 0
BBX 11 11 0 0
BITMAP
7F80
30C0
3060
3060
3060
FC60
6060
60C0
60C0
6180
FE00
ENDCHAR
STARTCHAR Ntilde
ENCODING 209
SWIDTH 852 0
DWIDTH 13 0
BBX 12 14 0 0
BITMAP
0740
0B80
0000
7870
3820
3C20
2C20
2E60
2740
6340
43C0
41C0
41C0
E0C0
ENDCHAR
STARTCHAR Ograve
ENCODING 210
SWIDTH 833 0
DWIDTH 12 0
BBX 11 15 0 0
BITMAP
1800
0C00
0200
0000
0F80
30C0
6060
6060
C060
C060
C060
C0C0
C0C0
6180
3E00
ENDCHAR
STARTCHAR Oacute
ENCODING 211
SWIDTH 833 0
DWIDTH 12 0
BBX 11 15 0 0
BITMAP
0180
0300
0400
0000
0F80
30C0
6060
6060
C060
C060
C060
C0C0
C0C0
6180
3E00
ENDCHAR
STARTCHAR Ocircumflex
ENCODING 212
SWIDTH 833 0
DWIDTH 12 0
BBX 11 15 0 0
BITMAP
0200
0700
0D80
0000
0F80
30C0
6060
6060
C060
C060
C060
C0C0
C0C0
6180
3E00
ENDCHAR
STARTCHAR Otilde
ENCODING 213
SWIDTH 833 0
DWIDTH 12 0
BBX 11 14 0 0
BITMAP
0740
0B80
0000
0F80
30C0
6060
6060
C060
C060
C060
C0C0
C0C0
6180
3E00
ENDCHAR
STARTCHAR Odieresis
ENCODING 214
SWIDTH 833 0
DWIDTH 12 0
BBX 11 14 0 0
BITMAP
0900
0900
0000
0F80
30C0
6060
6060
C060
C060
C060
C0C0
C0C0
6180
3E00
ENDCHAR
STARTCHAR multiply
ENCODING 215
SWIDTH 606 0
DWIDTH 8 0
BBX 8 7 0 1
BITMAP
C3
66
3C
18
3C
66
C3
ENDCHAR
STARTCHAR Oslash
ENCODING 216
SWIDTH 833 0
DWIDTH 12 0
BBX 11 11 0 0
BITMAP
0FA0
30C0
60E0
6160
C260
C460
C860
D0C0
E0C0
6180
BE00
ENDCHAR
STARTCHAR Ugrave
ENCODING 217
SWIDTH 833 0
DWIDTH 12 0
BBX 10 15 1 0
BITMAP
1800
0C00
0200
0000
F1C0
6080
6080
6080
6080
C180
C100
C100
C100
E300
7E00
ENDCHAR
STARTCHAR Uacute
ENCODING 218
SWIDTH 833 0
DWIDTH 12 0
BBX 10 15 1 0
BITMAP
0300
0600
0800
0000
F1C0
6080
6080
6080
6080
C180
C100
C100
C100
E300
7E00
ENDCHAR
STARTCHAR Ucircumflex
ENCODING 219
SWIDTH 833 0
DWIDTH 12 0
BBX 10 15 1 0
BITMAP
0400
0E00
1B00
0000
F1C0
6080
6080
6080
6080
C180
C100
C100
C100
E300
7E00
ENDCHAR
STARTCHAR Udieresis
ENCODING 220
SWIDTH 833 0
DWIDTH 12 0
BBX 10 14 1 0
BITMAP
1200
1200
0000
F1C0
6080
6080
6080
6080
C180
C100
C100
C100
E300
7E00
ENDCHAR
STARTCHAR Yacute
ENCODING 221
SWIDTH 704 0
DWIDTH 9 0
BBX 10 15 0 0
BITMAP
0180
0300
0400
0000
F1C0
6080
3100
3200
1C00
1800
1800
3000
3000
3000
7800
ENDCHAR
STARTCHAR Thorn
ENCODING 222
SWIDTH 741 0
DWIDTH 11 0
BBX 10 11 0 0
BITMAP
7800
3000
3F80
30C0
30C0
30C0
6180
7F00
6000
6000
F000
ENDCHAR
STARTCHAR germandbls
ENCODING 223
SWIDTH 574 0
DWIDTH 10 0
BBX 9 14 0 -3
BITMAP
0F00
1180
3180
3100
3600
6300
6300
6300
6300
C200
CC00
C000
C000
8000
ENDCHAR
STARTCHAR agrave
ENCODING 224
SWIDTH 667 0
DWIDTH 10 0
BBX 9 11 0 0
BITMAP
3000
1800
0400
0000
3B00
6700
C300
C600
C600
CE80
7700
ENDCHAR
STARTCHAR aacute
ENCODING 225
SWIDTH 667 0
DWIDTH 10 0
BBX 9 11 0 0
BITMAP
0600
0C00
1000
0000
3B00
6700
C300
C600
C600
CE80
7700
ENDCHAR
STARTCHAR acircumflex
ENCODING 226
SWIDTH 667 0
DWIDTH 10 0
BBX 9 11 0 0
BITMAP
0800
1C00
3600
0000
3B00
6700
C300
C600
C600
CE80
7700
ENDCHAR
STARTCHAR atilde
ENCODING 227
SWIDTH 667 0
DWIDTH 10 0
BBX 9 10 0 0
BITMAP
1D00
2E00
0000
3B00
6700
C300
C600
C600
CE80
7700
ENDCHAR
STARTCHAR adieresis
ENCODING 228
SWIDTH 667 0
DWIDTH 10 0
BBX 9 10 0 0
BITMAP
2400
2400
0000
3B00
6700
C300
C600
C600
CE80
7700
ENDCHAR
STARTCHAR aring
ENCODING 229
SWIDTH 667 0
DWIDTH 10 0
BBX 9 11 0 0
BITMAP
0C00
1200
0C00
0000
3B00
6700
C300
C600
C600
CE80
7700
ENDCHAR
STARTCHAR ae
ENCODING 230
SWIDTH 815 0
DWIDTH 13 0
BBX 12 7 0 0
BITMAP
39E0
6730
0630
7FE0
C600
CE20
73C0
ENDCHAR
STARTCHAR ccedilla
ENCODING 231
SWIDTH 537 0
DWIDTH 8 0
BBX 7 10 0 -3
BITMAP
3C
66
C6
C0
C0
C4
78
20
10
70
ENDCHAR
STARTCHAR egrave
ENCODING 232
SWIDTH 519 0
DWIDTH 8 0
BBX 7 11 0 0
BITMAP
60
30
08
00
3C
66
C6
FC
C0
C4
78
ENDCHAR
STARTCHAR eacute
ENCODING 233
SWIDTH 519 0
DWIDTH 8 0
BBX 7 11 0 0
BITMAP
06
0C
10
00
3C
66
C6
FC
C0
C4
78
ENDCHAR
STARTCHAR ecircumflex
ENCODING 234
SWIDTH 519 0
DWIDTH 8 0
BBX 7 11 0 0
BITMAP
10
38
6C
00
3C
66
C6
FC
C0
C4
78
ENDCHAR
STARTCHAR edieresis
ENCODING 235
SWIDTH 519 0
DWIDTH 8 0
BBX 7 10 0 0
BITMAP
24
24
00
3C
66
C6
FC
C0
C4
78
ENDCHAR
STARTCHAR igrave
ENCODING 236
SWIDTH 389 0
DWIDTH 5 0
BBX 4 11 0 0
BITMAP
C0
60
10
00
E0
60
60
C0
C0
D0
E0
ENDCHAR
STARTCHAR iacute
ENCODING 237
SWIDTH 389 0
DWIDTH 5 0
BBX 5 11 0 0
BITMAP
18
30
40
00
E0
60
60
C0
C0
D0
E0
ENDCHAR
STARTCHAR icircumflex
ENCODING 238
SWIDTH 389 0
DWIDTH 5 0
BBX 5 11 0 0
BITMAP
20
70
D8
00
E0
60
60
C0
C0
D0
E0
ENDCHAR
STARTCHAR idieresis
ENCODING 239
SWIDTH 389 0
DWIDTH 5 0
BBX 4 10 0 0
BITMAP
90
90
00
E0
60
60
C0
C0
D0
E0
ENDCHAR
STARTCHAR eth
ENCODING 240
SWIDTH 574 0
DWIDTH 8 0
BBX 7 11 0 0
BITMAP
C8
30
58
0C
3C
66
C6
C6
C6
CC
78
ENDCHAR
STARTCHAR ntilde
ENCODING 241
SWIDTH 685 0
DWIDTH 10 0
BBX 9 10 0 0
BITMAP
1D00
2E00
0000
E600
6F00
7300
6300
C600
C680
C700
ENDCHAR
STARTCHAR ograve
ENCODING 242
SWIDTH 574 0
DWIDTH 8 0
BBX 7 11 0 0
BITMAP
60
30
08
00
3C
66
C6
C6
C6
CC
78
ENDCHAR
STARTCHAR oacute
ENCODING 243
SWIDTH 574 0
DWIDTH 8 0
BBX 7 11 0 0
BITMAP
06
0C
10
00
3C
66
C6
C6
C6
CC
78
ENDCHAR
STARTCHAR ocircumflex
ENCODING 244
SWIDTH 574 0
DWIDTH 8 0
BBX 7 11 0 0
BITMAP
08
1C
36
00
3C
66
C6
C6
C6
CC
78
ENDCHAR
STARTCHAR otilde
ENCODING 245
SWIDTH 574 0
DWIDTH 8 0
BBX 7 10 0 0
BITMAP
3A
5C
00
3C
66
C6
C6
C6
CC
78
ENDCHAR
STARTCHAR odieresis
ENCODING 246
SWIDTH 574 0
DWIDTH 8 0
BBX 7 10 0 0
BITMAP
24
24
00
3C
66
C6
C6
C6
CC
78
ENDCHAR
STARTCHAR divide
ENCODING 247
SWIDTH 606 0
DWIDTH 8 0
BBX 7 7 0 1
BITMAP
10
10
00
FE
00
10
10
ENDCHAR
STARTCHAR oslash
ENCODING 248
SWIDTH 574 0
DWIDTH 8 0
BBX 9 7 -1 0
BITMAP
1E80
3300
6700
6B00
7300
6600
BC00
ENDCHAR
STARTCHAR ugrave
ENCODING 249
SWIDTH 685 0
DWIDTH 10 0
BBX 9 11 0 0
BITMAP
3000
1800
0400
0000
E300
6300
6300
C600
CE00
F680
6700
ENDCHAR
STARTCHAR uacute
ENCODING 250
SWIDTH 685 0
DWIDTH 10 0
BBX 9 11 0 0
BITMAP
0300
0600
0800
0000
E300
6300
6300
C600
CE00
F680
6700
ENDCHAR
STARTCHAR ucircumflex
ENCODING 251
SWIDTH 685 0
DWIDTH 10 0
BBX 9 11 0 0
BITMAP
0800
1C00
3600
0000
E300
6300
6300
C600
CE00
F680
6700
ENDCHAR
STARTCHAR udieresis
ENCODING 252
SWIDTH 685 0
DWIDTH 10 0
BBX 9 10 0 0
BITMAP
2400
2400
0000
E300
6300
6300
C600
CE00
F680
6700
ENDCHAR
STARTCHAR yacute
ENCODING 253
SWIDTH 519 0
DWIDTH 9 0
BBX 9 14 -1 -3
BITMAP
0300
0600
0800
0000
6180
7180
B100
1A00
1A00
0C00
0C00
0800
D000
E000
ENDCHAR
STARTCHAR thorn
ENCODING 254
SWIDTH 648 0
DWIDTH 8 0
BBX 9 14 -2 -3
BITMAP
1C00
0C00
0C00
0800
1B00
1D80
1980
3180
3180
3300
3E00
6000
6000
F000
ENDCHAR
STARTCHAR ydieresis
ENCODING 255
SWIDTH 519 0
DWIDTH 9 0
BBX 9 13 -1 -3
BITMAP
1200
1200
0000
6180
7180
B100
1A00
1A00
0C00
0C00
0800
D000
E000
ENDCHAR
STARTCHAR Amacron
ENCODING 256
SWIDTH 741 0
DWIDTH 11 0
BBX 11 13 -1 0
BITMAP
0F80
0000
0300
0300
0700
0580
0980
0980
1180
1FC0
20C0
60C0
F1E0
ENDCHAR
STARTCHAR amacron
ENCODING 257
SWIDTH 667 0
DWIDTH 10 0
BBX 9 9 0 0
BITMAP
3E00
0000
3B00
6700
C300
C600
C600
CE80
7700
ENDCHAR
STARTCHAR Abreve
ENCODING 258
SWIDTH 741 0
DWIDTH 11 0
BBX 11 15 -1 0
BITMAP
0880
0880
0700
0000
0300
0300
0700
0580
0980
0980
1180
1FC0
20C0
60C0
F1E0
ENDCHAR
STARTCHAR abreve
ENCODING 259
SWIDTH 667 0
DWIDTH 10 0
BBX 9 11 0 0
BITMAP
2200
2200
1C00
0000
3B00
6700
C300
C600
C600
CE80
7700
ENDCHAR
STARTCHAR Aogonek
ENCODING 260
SWIDTH 741 0
DWIDTH 11 0
BBX 11 14 -1 -3
BITMAP
0300
0300
0700
0580
0980
0980
1180
1FC0
20C0
60C0
F1E0
0400
0800
0E00
ENDCHAR
STARTCHAR aogonek
ENCODING 261
SWIDTH 667 0
DWIDTH 10 0
BBX 9 10 0 -3
BITMAP
3B00
6700
C300
C600
C600
CE80
7700
0800
1000
1C00
ENDCHAR
STARTCHAR Cacute
ENCODING 262
SWIDTH 759 0
DWIDTH 11 0
BBX 10 15 0 0
BITMAP
0180
0300
0400
0000
0F40
30C0
6040
6040
C000
C000
C000
C000
C080
6180
3E00
ENDCHAR
STARTCHAR cacute
ENCODING 263
SWIDTH 537 0
DWIDTH 8 0
BBX 7 11 0 0
BITMAP
06
0C
10
00
3C
66
C6
C0
C0
C4
78
ENDCHAR
STARTCHAR Ccircumflex
ENCODING 264
SWIDTH 759 0
DWIDTH 11 0
BBX 10 15 0 0
BITMAP
0400
0E00
1B00
0000
0F40
30C0
6040
6040
C000
C000
C000
C000
C080
6180
3E00
ENDCHAR
STARTCHAR ccircumflex
ENCODING 265
SWIDTH 537 0
DWIDTH 8 0
BBX 7 11 0 0
BITMAP
10
38
6C
00
3C
66
C6
C0
C0
C4
78
ENDCHAR
STARTCHAR Cdotaccent
ENCODING 266
SWIDTH 759 0
DWIDTH 11 0
BBX 10 14 0 0
BITMAP
0400
0400
0000
0F40
30C0
6040
6040
C000
C000
C000
C000
C080
6180
3E00
ENDCHAR
STARTCHAR cdotaccent
ENCODING 267
SWIDTH 537 0
DWIDTH 8 0
BBX 7 10 0 0
BITMAP
10
10
00
3C
66
C6
C0
C0
C4
78
ENDCHAR
STARTCHAR Ccaron
ENCODING 268
SWIDTH 759 0
DWIDTH 11 0
BBX 10 15 0 0
BITMAP
1B00
0E00
0400
0000
0F40
30C0
6040
6040
C000
C000
C000
C000
C080
6180
3E00
ENDCHAR
STARTCHAR ccaron
ENCODING 269
SWIDTH 537 0
DWIDTH 8 0
BBX 7 11 0 0
BITMAP
6C
38
10
00
3C
66
C6
C0
C0
C4
78
ENDCHAR
STARTCHAR Dcaron
ENCODING 270
SWIDTH 833 0
DWIDTH 12 0
BBX 11 15 0 0
BITMAP
1B00
0E00
0400
0000
7F80
30C0
3060
3060
3060
6060
6060
60C0
60C0
6180
FE00
ENDCHAR
STARTCHAR dcaron
ENCODING 271
SWIDTH 893 0
DWIDTH 14 0
BBX 13 11 0 0
BITMAP
0398
0198
0188
0310
3B20
6700
C300
C600
C600
CE80
7700
ENDCHAR
STARTCHAR Dcroat
ENCODING 272
SWIDTH 833 0
DWIDTH 12 0
BBX 11 11 0 0
BITMAP
7F80
30C0
3060
3060
3060
FC60
6060
60C0
60C0
6180
FE00
ENDCHAR
STARTCHAR dcroat
ENCODING 273
SWIDTH 667 0
DWIDTH 10 0
BBX 9 11 0 0
BITMAP
0380
0180
0F80
0300
3B00
6700
C300
C600
C600
CE80
7700
ENDCHAR
STARTCHAR Emacron
ENCODING 274
SWIDTH 741 0
DWIDTH 10 0
BBX 9 13 0 0
BITMAP
3E00
0000
7F80
3080
3080
3200
3200
7E00
6200
6200
6100
6100
FF00
ENDCHAR
STARTCHAR emacron
ENCODING 275
SWIDTH 519 0
DWIDTH 8 0
BBX 7 9 0 0
BITMAP
7C
00
3C
66
C6
FC
C0
C4
78
ENDCHAR
STARTCHAR Ebreve
ENCODING 276
SWIDTH 741 0
DWIDTH 10 0
BBX 9 15 0 0
BITMAP
2200
2200
1C00
0000
7F80
3080
3080
3200
3200
7E00
6200
6200
6100
6100
FF00
ENDCHAR
STARTCHAR ebreve
ENCODING 277
SWIDTH 519 0
DWIDTH 8 0
BBX 7 11 0 0
BITMAP
44
44
38
00
3C
66
C6
FC
C0
C4
78
ENDCHAR
STARTCHAR Edotaccent
ENCODING 278
SWIDTH 741 0
DWIDTH 10 0
BBX 9 14 0 0
BITMAP
0800
0800
0000
7F80
3080
3080
3200
3200
7E00
6200
6200
6100
6100
FF00
ENDCHAR
STARTCHAR edotaccent
ENCODING 279
SWIDTH 519 0
DWIDTH 8 0
BBX 7 10 0 0
BITMAP
10
10
00
3C
66
C6
FC
C0
C4
78
ENDCHAR
STARTCHAR Eogonek
ENCODING 280
SWIDTH 741 0
DWIDTH 10 0
BBX 9 14 0 -3
BITMAP
7F80
3080
3080
3200
3200
7E00
6200
6200
6100
6100
FF00
0800
1000
1C00
ENDCHAR
STARTCHAR eogonek
ENCODING 281
SWIDTH 519 0
DWIDTH 8 0
BBX 7 10 0 -3
BITMAP
3C
66
C6
FC
C0
C4
78
10
20
38
ENDCHAR
STARTCHAR Ecaron
ENCODING 282
SWIDTH 741 0
DWIDTH 10 0
BBX 9 15 0 0
BITMAP
3600
1C00
0800
0000
7F80
3080
3080
3200
3200
7E00
6200
6200
6100
6100
FF00
ENDCHAR
STARTCHAR ecaron
ENCODING 283
SWIDTH 519 0
DWIDTH 8 0
BBX 7 11 0 0
BITMAP
6C
38
10
00
3C
66
C6
FC
C0
C4
78
ENDCHAR
STARTCHAR Gcircumflex
ENCODING 284
SWIDTH 815 0
DWIDTH 11 0
BBX 10 15 0 0
BITMAP
0400
0E00
1B00
0000
0F40
30C0
6040
6040
C000
C000
C7C0
C180
C180
6300
3D00
ENDCHAR
STARTCHAR gcircumflex
ENCODING 285
SWIDTH 611 0
DWIDTH 8 0
BBX 9 16 -1 -3
BITMAP
0400
0E00
1B00
0000
0180
0380
1E00
2300
6300
6200
3C00
4000
7E00
7F00
8300
FC00
ENDCHAR
STARTCHAR Gbreve
ENCODING 286
SWIDTH 815 0
DWIDTH 11 0
BBX 10 15 0 0
BITMAP
1100
1100
0E00
0000
0F40
30C0
6040
6040
C000
C000
C7C0
C180
C180
6300
3D00
ENDCHAR
STARTCHAR gbreve
ENCODING 287
SWIDTH 611 0
DWIDTH 8 0
BBX 9 16 -1 -3
BITMAP
1100
1100
0E00
0000
0180
0380
1E00
2300
6300
6200
3C00
4000
7E00
7F00
8300
FC00
ENDCHAR
STARTCHAR Gdotaccent
ENCODING 288
SWIDTH 815 0
DWIDTH 11 0
BBX 10 14 0 0
BITMAP
0400
0400
0000
0F40
30C0
6040
6040
C000
C000
C7C0
C180
C180
6300
3D00
ENDCHAR
STARTCHAR gdotaccent
ENCODING 289
SWIDTH 611 0
DWIDTH 8 0
BBX 9 15 -1 -3
BITMAP
0400
0400
0000
0180
0380
1E00
2300
6300
6200
3C00
4000
7E00
7F00
8300
FC00
ENDCHAR
STARTCHAR Gcommaaccent
ENCODING 290
SWIDTH 815 0
DWIDTH 11 0
BBX 10 17 0 -6
BITMAP
0F40
30C0
6040
6040
C000
C000
C7C0
C180
C180
6300
3D00
0000
0C00
0C00
0400
0800
1000
ENDCHAR
STARTCHAR gcommaaccent
ENCODING 291
SWIDTH 611 0
DWIDTH 8 0
BBX 9 18 -1 -3
BITMAP
0100
0200
0400
0600
0600
0000
0180
0380
1E00
2300
6300
6200
3C00
4000
7E00
7F00
8300
FC00
ENDCHAR
STARTCHAR Hcircumflex
ENCODING 292
SWIDTH 870 0
DWIDTH 12 0
BBX 11 15 0 0
BITMAP
0400
0E00
1B00
0000
79E0
30C0
30C0
30C0
30C0
7F80
6180
6180
6180
6180
F3C0
ENDCHAR
STARTCHAR hcircumflex
ENCODING 293
SWIDTH 685 0
DWIDTH 10 0
BBX 9 15 0 0
BITMAP
1000
3800
6C00
0000
7000
3000
3000
6000
6600
6F00
7300
C300
C600
C680
C700
ENDCHAR
STARTCHAR Hbar
ENCODING 294
SWIDTH 870 0
DWIDTH 12 0
BBX 11 11 0 0
BITMAP
79E0
30C0
30C0
FFE0
30C0
7F80
6180
6180
6180
6180
F3C0
ENDCHAR
STARTCHAR hbar
ENCODING 295
SWIDTH 685 0
DWIDTH 10 0
BBX 9 11 0 0
BITMAP
7000
3000
F800
6000
6600
6F00
7300
C300
C600
C680
C700
ENDCHAR
STARTCHAR Itilde
ENCODING 296
SWIDTH 444 0
DWIDTH 6 0
BBX 6 14 0 0
BITMAP
34
58
00
78
30
30
30
30
60
60
60
60
60
F0
ENDCHAR
STARTCHAR itilde
ENCODING 297
SWIDTH 389 0
DWIDTH 5 0
BBX 5 10 0 0
BITMAP
68
B0
00
E0
60
60
C0
C0
D0
E0
ENDCHAR
STARTCHAR Imacron
ENCODING 298
SWIDTH 444 0
DWIDTH 6 0
BBX 5 13 0 0
BITMAP
F8
00
78
30
30
30
30
60
60
60
60
60
F0
ENDCHAR
STARTCHAR imacron
ENCODING 299
SWIDTH 389 0
DWIDTH 5 0
BBX 5 9 -1 0
BITMAP
F8
00
70
30
30
60
60
68
70
ENDCHAR
STARTCHAR Ibreve
ENCODING 300
SWIDTH 444 0
DWIDTH 6 0
BBX 5 15 0 0
BITMAP
88
88
70
00
78
30
30
30
30
60
60
60
60
60
F0
ENDCHAR
STARTCHAR ibreve
ENCODING 301
SWIDTH 389 0
DWIDTH 5 0
BBX 5 11 -1 0
BITMAP
88
88
70
00
70
30
30
60
60
68
70
ENDCHAR
STARTCHAR Iogonek
ENCODING 302
SWIDTH 444 0
DWIDTH 6 0
BBX 5 14 0 -3
BITMAP
78
30
30
30
30
60
60
60
60
60
F0
20
40
70
ENDCHAR
STARTCHAR iogonek
ENCODING 303
SWIDTH 389 0
DWIDTH 5 0
BBX 4 13 0 -3
BITMAP
30
30
00
E0
60
60
C0
C0
D0
E0
40
80
E0
ENDCHAR
STARTCHAR Idotaccent
ENCODING 304
SWIDTH 444 0
DWIDTH 6 0
BBX 5 14 0 0
BITMAP
20
20
00
78
30
30
30
30
60
60
60
60
60
F0
ENDCHAR
STARTCHAR dotlessi
ENCODING 305
SWIDTH 389 0
DWIDTH 5 0
BBX 4 7 0 0
BITMAP
E0
60
60
C0
C0
D0
E0
ENDCHAR
STARTCHAR IJ
ENCODING 306
SWIDTH 1089 0
DWIDTH 14 0
BBX 13 11 0 0
BITMAP
7878
3030
3030
3030
3030
6060
6060
6060
6660
6640
F380
ENDCHAR
STARTCHAR ij
ENCODING 307
SWIDTH 740 0
DWIDTH 9 0
BBX 9 13 0 -3
BITMAP
3180
3180
0000
E700
6300
6300
C300
C600
D600
E600
0600
3400
3800
ENDCHAR
STARTCHAR Jcircumflex
ENCODING 308
SWIDTH 667 0
DWIDTH 8 0
BBX 8 15 -1 0
BITMAP
04
0E
1B
00
0F
06
06
06
06
0C
0C
0C
CC
C8
70
ENDCHAR
STARTCHAR jcircumflex
ENCODING 309
SWIDTH 370 0
DWIDTH 4 0
BBX 7 14 -3 -3
BITMAP
08
1C
36
00
1C
0C
0C
0C
18
18
18
18
D0
E0
ENDCHAR
STARTCHAR Kcommaaccent
ENCODING 310
SWIDTH 778 0
DWIDTH 12 0
BBX 11 17 0 -6
BITMAP
79E0
3080
3100
3200
3400
3E00
7700
6300
6380
61C0
F3E0
0000
0600
0600
0200
0400
0800
ENDCHAR
STARTCHAR kcommaaccent
ENCODING 311
SWIDTH 648 0
DWIDTH 9 0
BBX 8 17 0 -6
BITMAP
70
30
30
60
6F
73
66
F8
CC
CF
C6
00
18
18
08
10
20
ENDCHAR
STARTCHAR kgreenlandic
ENCODING 312
SWIDTH 648 0
DWIDTH 9 0
BBX 8 7 0 0
BITMAP
6F
73
66
F8
CC
CF
C6
ENDCHAR
STARTCHAR Lacute
ENCODING 313
SWIDTH 704 0
DWIDTH 10 0
BBX 9 15 0 0
BITMAP
0600
0C00
1000
0000
7800
3000
3000
3000
3000
6000
6000
6000
6080
6080
FF80
ENDCHAR
STARTCHAR lacute
ENCODING 314
SWIDTH 389 0
DWIDTH 5 0
BBX 6 15 0 0
BITMAP
0C
18
20
00
70
30
30
60
60
60
60
C0
C0
D0
E0
ENDCHAR
STARTCHAR Lcommaaccent
ENCODING 315
SWIDTH 704 0
DWIDTH 10 0
BBX 9 17 0 -6
BITMAP
7800
3000
3000
3000
3000
6000
6000
6000
6080
6080
FF80
0000
0C00
0C00
0400
0800
1000
ENDCHAR
STARTCHAR lcommaaccent
ENCODING 316
SWIDTH 389 0
DWIDTH 5 0
BBX 4 17 0 -6
BITMAP
70
30
30
60
60
60
60
C0
C0
D0
E0
00
60
60
20
40
80
ENDCHAR
STARTCHAR Lcaron
ENCODING 317
SWIDTH 928 0
DWIDTH 14 0
BBX 13 11 0 0
BITMAP
7818
3018
3008
3010
3020
6000
6000
6000
6080
6080
FF80
ENDCHAR
STARTCHAR lcaron
ENCODING 318
SWIDTH 629 0
DWIDTH 9 0
BBX 8 11 0 0
BITMAP
73
33
31
62
64
60
60
C0
C0
D0
E0
ENDCHAR
STARTCHAR Ldot
ENCODING 319
SWIDTH 956 0
DWIDTH 15 0
BBX 13 11 0 0
BITMAP
7800
3000
3000
3000
3000
6018
6018
6018
6080
6080
FF80
ENDCHAR
STARTCHAR ldot
ENCODING 320
SWIDTH 657 0
DWIDTH 10 0
BBX 8 11 0 0
BITMAP
70
30
30
60
60
63
63
C3
C0
D0
E0
ENDCHAR
STARTCHAR Lslash
ENCODING 321
SWIDTH 704 0
DWIDTH 10 0
BBX 9 11 0 0
BITMAP
7800
3000
3400
3800
3000
6000
E000
6000
6080
6080
FF80
ENDCHAR
STARTCHAR lslash
ENCODING 322
SWIDTH 389 0
DWIDTH 5 0
BBX 6 11 -1 0
BITMAP
38
18
18
30
3C
F0
30
60
60
68
70
ENDCHAR
STARTCHAR Nacute
ENCODING 323
SWIDTH 852 0
DWIDTH 13 0
BBX 12 15 0 0
BITMAP
0180
0300
0400
0000
7870
3820
3C20
2C20
2E60
2740
6340
43C0
41C0
41C0
E0C0
ENDCHAR
STARTCHAR nacute
ENCODING 324
SWIDTH 685 0
DWIDTH 10 0
BBX 9 11 0 0
BITMAP
0600
0C00
1000
0000
E600
6F00
7300
6300
C600
C680
C700
ENDCHAR
STARTCHAR Ncommaaccent
ENCODING 325
SWIDTH 852 0
DWIDTH 13 0
BBX 12 17 0 -6
BITMAP
7870
3820
3C20
2C20
2E60
2740
6340
43C0
41C0
41C0
E0C0
0000
0600
0600
0200
0400
0800
ENDCHAR
STARTCHAR ncommaaccent
ENCODING 326
SWIDTH 685 0
DWIDTH 10 0
BBX 9 13 0 -6
BITMAP
E600
6F00
7300
6300
C600
C680
C700
0000
0C00
0C00
0400
0800
1000
ENDCHAR
STARTCHAR Ncaron
ENCODING 327
SWIDTH 852 0
DWIDTH 13 0
BBX 12 15 0 0
BITMAP
1B00
0E00
0400
0000
7870
3820
3C20
2C20
2E60
2740
6340
43C0
41C0
41C0
E0C0
ENDCHAR
STARTCHAR ncaron
ENCODING 328
SWIDTH 685 0
DWIDTH 10 0
BBX 9 11 0 0
BITMAP
3600
1C00
0800
0000
E600
6F00
7300
6300
C600
C680
C700
ENDCHAR
STARTCHAR napostrophe
ENCODING 329
SWIDTH 931 0
DWIDTH 14 0
BBX 13 11 0 0
BITMAP
6000
6000
2000
4000
8E60
06F0
0730
0630
0C60
0C68
0C70
ENDCHAR
STARTCHAR Eng
ENCODING 330
SWIDTH 852 0
DWIDTH 13 0
BBX 12 14 0 -3
BITMAP
7870
3820
3C20
2C20
2E60
2740
6340
43C0
41C0
41C0
E0C0
00C0
0680
0700
ENDCHAR
STARTCHAR eng
ENCODING 331
SWIDTH 685 0
DWIDTH 10 0
BBX 8 10 0 -3
BITMAP
E6
6F
73
63
C6
C6
C6
06
34
38
ENDCHAR
STARTCHAR Omacron
ENCODING 332
SWIDTH 833 0
DWIDTH 12 0
BBX 11 13 0 0
BITMAP
1F00
0000
0F80
30C0
6060
6060
C060
C060
C060
C0C0
C0C0
6180
3E00
ENDCHAR
STARTCHAR omacron
ENCODING 333
SWIDTH 574 0
DWIDTH 8 0
BBX 7 9 0 0
BITMAP
7C
00
3C
66
C6
C6
C6
CC
78
ENDCHAR
STARTCHAR Obreve
ENCODING 334
SWIDTH 833 0
DWIDTH 12 0
BBX 11 15 0 0
BITMAP
1100
1100
0E00
0000
0F80
30C0
6060
6060
C060
C060
C060
C0C0
C0C0
6180
3E00
ENDCHAR
STARTCHAR obreve
ENCODING 335
SWIDTH 574 0
DWIDTH 8 0
BBX 7 11 0 0
BITMAP
44
44
38
00
3C
66
C6
C6
C6
CC
78
ENDCHAR
STARTCHAR Ohungarumlaut
ENCODING 336
SWIDTH 833 0
DWIDTH 12 0
BBX 11 15 0 0
BITMAP
0660
0CC0
1100
0000
0F80
30C0
6060
6060
C060
C060
C060
C0C0
C0C0
6180
3E00
ENDCHAR
STARTCHAR ohungarumlaut
ENCODING 337
SWIDTH 574 0
DWIDTH 8 0
BBX 9 11 0 0
BITMAP
1980
3300
4400
0000
3C00
6600
C600
C600
C600
CC00
7800
ENDCHAR
STARTCHAR OE
ENCODING 338
SWIDTH 963 0
DWIDTH 16 0
BBX 15 11 0 0
BITMAP
0FFE
30C2
60C2
60C8
C0C8
C1F8
C188
C188
C182
6182
3FFE
ENDCHAR
STARTCHAR oe
ENCODING 339
SWIDTH 852 0
DWIDTH 13 0
BBX 12 7 0 0
BITMAP
3DE0
6730
C630
C7E0
C600
CE20
7BC0
ENDCHAR
STARTCHAR Racute
ENCODING 340
SWIDTH 796 0
DWIDTH 12 0
BBX 11 15 0 0
BITMAP
0180
0300
0400
0000
7F80
30C0
30C0
30C0
3180
3E00
6300
6300
6180
61A0
F1C0
ENDCHAR
STARTCHAR racute
ENCODING 341
SWIDTH 519 0
DWIDTH 7 0
BBX 7 11 0 0
BITMAP
06
0C
10
00
EE
76
60
60
C0
C0
C0
ENDCHAR
STARTCHAR Rcommaaccent
ENCODING 342
SWIDTH 796 0
DWIDTH 12 0
BBX 11 17 0 -6
BITMAP
7F80
30C0
30C0
30C0
3180
3E00
6300
6300
6180
61A0
F1C0
0000
0600
0600
0200
0400
0800
ENDCHAR
STARTCHAR rcommaaccent
ENCODING 343
SWIDTH 519 0
DWIDTH 7 0
BBX 7 13 0 -6
BITMAP
EE
76
60
60
C0
C0
C0
00
60
60
20
40
80
ENDCHAR
STARTCHAR Rcaron
ENCODING 344
SWIDTH 796 0
DWIDTH 12 0
BBX 11 15 0 0
BITMAP
1B00
0E00
0400
0000
7F80
30C0
30C0
30C0
3180
3E00
6300
6300
6180
61A0
F1C0
ENDCHAR
STARTCHAR rcaron
ENCODING 345
SWIDTH 519 0
DWIDTH 7 0
BBX 7 11 0 0
BITMAP
6C
38
10
00
EE
76
60
60
C0
C0
C0
ENDCHAR
STARTCHAR Sacute
ENCODING 346
SWIDTH 685 0
DWIDTH 10 0
BBX 9 15 0 0
BITMAP
0300
0600
0800
0000
1E80
7180
6080
6080
7800
3E00
0F00
8300
8300
C700
BC00
ENDCHAR
STARTCHAR sacute
ENCODING 347
SWIDTH 481 0
DWIDTH 8 0
BBX 7 11 0 0
BITMAP
06
0C
10
00
1E
66
60
38
0C
CC
F0
ENDCHAR
STARTCHAR Scircumflex
ENCODING 348
SWIDTH 685 0
DWIDTH 10 0
BBX 9 15 0 0
BITMAP
0800
1C00
3600
0000
1E80
7180
6080
6080
7800
3E00
0F00
8300
8300
C700
BC00
ENDCHAR
STARTCHAR scircumflex
ENCODING 349
SWIDTH 481 0
DWIDTH 8 0
BBX 7 11 0 0
BITMAP
08
1C
36
00
1E
66
60
38
0C
CC
F0
ENDCHAR
STARTCHAR Scedilla
ENCODING 350
SWIDTH 685 0
DWIDTH 10 0
BBX 9 14 0 -3
BITMAP
1E80
7180
6080
6080
7800
3E00
0F00
8300
8300
C700
BC00
0800
0400
1C00
ENDCHAR
STARTCHAR scedilla
ENCODING 351
SWIDTH 481 0
DWIDTH 8 0
BBX 7 10 0 -3
BITMAP
1E
66
60
38
0C
CC
F0
20
10
70
ENDCHAR
STARTCHAR Scaron
ENCODING 352
SWIDTH 685 0
DWIDTH 10 0
BBX 9 14 0 0
BITMAP
1B00
0E00
0000
1E80
7180
6080
6080
7800
3E00
0F00
8300
8300
C700
BC00
ENDCHAR
STARTCHAR scaron
ENCODING 353
SWIDTH 481 0
DWIDTH 8 0
BBX 7 11 0 0
BITMAP
36
1C
08
00
1E
66
60
38
0C
CC
F0
ENDCHAR
STARTCHAR Tcommaaccent
ENCODING 354
SWIDTH 722 0
DWIDTH 11 0
BBX 10 14 0 -3
BITMAP
FFC0
8C40
8C40
0C00
0C00
1800
1800
1800
1800
1800
3C00
0800
0400
1C00
ENDCHAR
STARTCHAR tcommaaccent
ENCODING 355
SWIDTH 407 0
DWIDTH 5 0
BBX 5 12 0 -3
BITMAP
60
60
F8
60
60
C0
C0
D0
E0
40
20
E0
ENDCHAR
STARTCHAR Tcaron
ENCODING 356
SWIDTH 722 0
DWIDTH 11 0
BBX 10 15 0 0
BITMAP
1B00
0E00
0400
0000
FFC0
8C40
8C40
0C00
0C00
1800
1800
1800
1800
1800
3C00
ENDCHAR
STARTCHAR tcaron
ENCODING 357
SWIDTH 646 0
DWIDTH 9 0
BBX 8 11 0 0
BITMAP
03
03
61
62
FC
60
60
C0
C0
D0
E0
ENDCHAR
STARTCHAR Tbar
ENCODING 358
SWIDTH 722 0
DWIDTH 11 0
BBX 10 11 0 0
BITMAP
FFC0
8C40
8C40
0C00
0C00
1F00
1800
1800
1800
1800
3C00
ENDCHAR
STARTCHAR tbar
ENCODING 359
SWIDTH 407 0
DWIDTH 5 0
BBX 5 9 0 0
BITMAP
60
60
F8
60
60
F8
C0
D0
E0
ENDCHAR
STARTCHAR Utilde
ENCODING 360
SWIDTH 833 0
DWIDTH 12 0
BBX 10 14 1 0
BITMAP
1A00
2C00
0000
F1C0
6080
6080
6080
6080
C180
C100
C100
C100
E300
7E00
ENDCHAR
STARTCHAR utilde
ENCODING 361
SWIDTH 685 0
DWIDTH 10 0
BBX 9 10 0 0
BITMAP
1A00
2C00
0000
E300
6300
6300
C600
CE00
F680
6700
ENDCHAR
STARTCHAR Umacron
ENCODING 362
SWIDTH 833 0
DWIDTH 12 0
BBX 10 13 1 0
BITMAP
3E00
0000
F1C0
6080
6080
6080
6080
C180
C100
C100
C100
E300
7E00
ENDCHAR
STARTCHAR umacron
ENCODING 363
SWIDTH 685 0
DWIDTH 10 0
BBX 9 9 0 0
BITMAP
3E00
0000
E300
6300
6300
C600
CE00
F680
6700
ENDCHAR
STARTCHAR Ubreve
ENCODING 364
SWIDTH 833 0
DWIDTH 12 0
BBX 10 15 1 0
BITMAP
2200
2200
1C00
0000
F1C0
6080
6080
6080
6080
C180
C100
C100
C100
E300
7E00
ENDCHAR
STARTCHAR ubreve
ENCODING 365
SWIDTH 685 0
DWIDTH 10 0
BBX 9 11 0 0
BITMAP
2200
2200
1C00
0000
E300
6300
6300
C600
CE00
F680
6700
ENDCHAR
STARTCHAR Uring
ENCODING 366
SWIDTH 833 0
DWIDTH 12 0
BBX 10 15 1 0
BITMAP
0C00
1200
0C00
0000
F1C0
6080
6080
6080
6080
C180
C100
C100
C100
E300
7E00
ENDCHAR
STARTCHAR uring
ENCODING 367
SWIDTH 685 0
DWIDTH 10 0
BBX 9 11 0 0
BITMAP
1800
2400
1800
0000
E300
6300
6300
C600
CE00
F680
6700
ENDCHAR
STARTCHAR Uhungarumlaut
ENCODING 368
SWIDTH 833 0
DWIDTH 12 0
BBX 10 15 1 0
BITMAP
0CC0
1980
2200
0000
F1C0
6080
6080
6080
6080
C180
C100
C100
C100
E300
7E00
ENDCHAR
STARTCHAR uhungarumlaut
ENCODING 369
SWIDTH 685 0
DWIDTH 10 0
BBX 9 11 0 0
BITMAP
1980
3300
4400
0000
E300
6300
6300
C600
CE00
F680
6700
ENDCHAR
STARTCHAR Uogonek
ENCODING 370
SWIDTH 833 0
DWIDTH 12 0
BBX 10 14 1 -3
BITMAP
F1C0
6080
6080
6080
6080
C180
C100
C100
C100
E300
7E00
0800
1000
1C00
ENDCHAR
STARTCHAR uogonek
ENCODING 371
SWIDTH 685 0
DWIDTH 10 0
BBX 9 10 0 -3
BITMAP
E300
6300
6300
C600
CE00
F680
6700
0800
1000
1C00
ENDCHAR
STARTCHAR Wcircumflex
ENCODING 372
SWIDTH 944 0
DWIDTH 15 0
BBX 16 15 0 0
BITMAP
0100
0380
06C0
0000
FBCF
6186
6184
6388
6388
34D0
34D0
38E0
38E0
30C0
30C0
ENDCHAR
STARTCHAR wcircumflex
ENCODING 373
SWIDTH 833 0
DWIDTH 13 0
BBX 12 11 0 0
BITMAP
0200
0700
0D80
0000
E330
6330
6310
C610
C620
CE60
73C0
ENDCHAR
STARTCHAR Ycircumflex
ENCODING 374
SWIDTH 704 0
DWIDTH 9 0
BBX 10 15 0 0
BITMAP
0800
1C00
3600
0000
F1C0
6080
3100
3200
1C00
1800
1800
3000
3000
3000
7800
ENDCHAR
STARTCHAR ycircumflex
ENCODING 375
SWIDTH 519 0
DWIDTH 9 0
BBX 9 14 -1 -3
BITMAP
0800
1C00
3600
0000
6180
7180
B100
1A00
1A00
0C00
0C00
0800
D000
E000
ENDCHAR
STARTCHAR Ydieresis
ENCODING 376
SWIDTH 704 0
DWIDTH 9 0
BBX 10 14 0 0
BITMAP
0900
0900
0000
F1C0
6080
3100
3200
1C00
1800
1800
3000
3000
3000
7800
ENDCHAR
STARTCHAR Zacute
ENCODING 377
SWIDTH 704 0
DWIDTH 10 0
BBX 9 15 0 0
BITMAP
0300
0600
0800
0000
7F80
4180
4380
0700
0E00
1C00
3800
7000
E100
C100
FF00
ENDCHAR
STARTCHAR zacute
ENCODING 378
SWIDTH 519 0
DWIDTH 9 0
BBX 8 11 0 0
BITMAP
06
0C
10
00
3B
7E
44
08
31
7E
9C
ENDCHAR
STARTCHAR Zdotaccent
ENCODING 379
SWIDTH 704 0
DWIDTH 10 0
BBX 9 14 0 0
BITMAP
0400
0400
0000
7F80
4180
4380
0700
0E00
1C00
3800
7000
E100
C100
FF00
ENDCHAR
STARTCHAR zdotaccent
ENCODING 380
SWIDTH 519 0
DWIDTH 9 0
BBX 8 10 0 0
BITMAP
08
08
00
3B
7E
44
08
31
7E
9C
ENDCHAR
STARTCHAR Zcaron
ENCODING 381
SWIDTH 704 0
DWIDTH 10 0
BBX 9 14 0 0
BITMAP
1B00
0E00
0000
7F80
4180
4380
0700
0E00
1C00
3800
7000
E100
C100
FF00
ENDCHAR
STARTCHAR zcaron
ENCODING 382
SWIDTH 519 0
DWIDTH 9 0
BBX 8 11 0 0
BITMAP
36
1C
08
00
3B
7E
44
08
31
7E
9C
ENDCHAR
STARTCHAR uni0186
ENCODING 390
SWIDTH 759 0
DWIDTH 11 0
BBX 10 11 0 0
BITMAP
1F00
6180
40C0
00C0
00C0
00C0
00C0
8180
8180
C300
BC00
ENDCHAR
STARTCHAR uni0189
ENCODING 393
SWIDTH 833 0
DWIDTH 12 0
BBX 11 11 0 0
BITMAP
7F80
30C0
3060
3060
3060
FC60
6060
60C0
60C0
6180
FE00
ENDCHAR
STARTCHAR uni018E
ENCODING 398
SWIDTH 741 0
DWIDTH 10 0
BBX 9 11 0 0
BITMAP
7F80
4300
4300
2300
2300
3F00
2600
2600
8600
8600
FF00
ENDCHAR
STARTCHAR florin
ENCODING 402
SWIDTH 574 0
DWIDTH 8 0
BBX 8 14 -1 -3
BITMAP
03
05
0C
0C
3F
18
18
18
18
30
30
30
A0
C0
ENDCHAR
STARTCHAR uni0197
ENCODING 407
SWIDTH 444 0
DWIDTH 6 0
BBX 5 11 0 0
BITMAP
78
30
30
30
30
F8
60
60
60
60
F0
ENDCHAR
STARTCHAR uni019A
ENCODING 410
SWIDTH 389 0
DWIDTH 5 0
BBX 5 11 0 0
BITMAP
70
30
30
60
60
F8
60
C0
C0
D0
E0
ENDCHAR
STARTCHAR uni019D
ENCODING 413
SWIDTH 852 0
DWIDTH 13 0
BBX 14 14 -2 -3
BITMAP
1E1C
0E08
0F08
0B08
0B98
09D0
18D0
10F0
1870
1870
1830
1800
D000
E000
ENDCHAR
STARTCHAR uni019F
ENCODING 415
SWIDTH 833 0
DWIDTH 12 0
BBX 11 11 0 0
BITMAP
0F80
30C0
6060
6060
C060
FFE0
C060
C0C0
C0C0
6180
3E00
ENDCHAR
STARTCHAR Ohorn
ENCODING 416
SWIDTH 833 0
DWIDTH 12 0
BBX 13 11 0 0
BITMAP
0F98
30D8
6068
6070
C060
C060
C060
C0C0
C0C0
6180
3E00
ENDCHAR
STARTCHAR ohorn
ENCODING 417
SWIDTH 574 0
DWIDTH 8 0
BBX 10 7 0 0
BITMAP
3CC0
66C0
C640
C680
C700
CC00
7800
ENDCHAR
STARTCHAR Uhorn
ENCODING 431
SWIDTH 833 0
DWIDTH 12 0
BBX 12 11 1 0
BITMAP
F1F0
60B0
6090
60A0
60C0
C180
C100
C100
C100
E300
7E00
ENDCHAR
STARTCHAR uhorn
ENCODING 432
SWIDTH 685 0
DWIDTH 10 0
BBX 11 7 0 0
BITMAP
E360
6360
6320
C640
CE80
F680
6700
ENDCHAR
STARTCHAR uni01B5
ENCODING 437
SWIDTH 704 0
DWIDTH 10 0
BBX 9 11 0 0
BITMAP
7F80
4180
4380
0700
0E00
3E00
3800
7000
E100
C100
FF00
ENDCHAR
STARTCHAR uni01B6
ENCODING 438
SWIDTH 519 0
DWIDTH 9 0
BBX 8 7 0 0
BITMAP
3B
7E
44
3E
31
7E
9C
ENDCHAR
STARTCHAR uni01BB
ENCODING 443
SWIDTH 574 0
DWIDTH 8 0
BBX 7 11 0 0
BITMAP
3C
66
66
06
0C
FE
30
60
C2
FC
FC
ENDCHAR
STARTCHAR uni01BC
ENCODING 444
SWIDTH 574 0
DWIDTH 8 0
BBX 7 11 0 0
BITMAP
3E
3C
20
40
78
0C
0C
0C
CC
D8
70
ENDCHAR
STARTCHAR uni01C0
ENCODING 448
SWIDTH 606 0
DWIDTH 8 0
BBX 1 11 3 0
BITMAP
80
80
80
80
80
80
80
80
80
80
80
ENDCHAR
STARTCHAR uni01C2
ENCODING 450
SWIDTH 606 0
DWIDTH 9 0
BBX 8 11 0 0
BITMAP
08
08
08
08
FF
08
08
FF
08
08
08
ENDCHAR
STARTCHAR uni01C3
ENCODING 451
SWIDTH 333 0
DWIDTH 5 0
BBX 4 11 0 0
BITMAP
30
30
30
60
60
60
40
40
00
C0
C0
ENDCHAR
STARTCHAR uni01CD
ENCODING 461
SWIDTH 741 0
DWIDTH 11 0
BBX 11 15 -1 0
BITMAP
0D80
0700
0200
0000
0300
0300
0700
0580
0980
0980
1180
1FC0
20C0
60C0
F1E0
ENDCHAR
STARTCHAR uni01CE
ENCODING 462
SWIDTH 667 0
DWIDTH 10 0
BBX 9 11 0 0
BITMAP
3600
1C00
0800
0000
3B00
6700
C300
C600
C600
CE80
7700
ENDCHAR
STARTCHAR uni01CF
ENCODING 463
SWIDTH 444 0
DWIDTH 6 0
BBX 5 15 0 0
BITMAP
D8
70
20
00
78
30
30
30
30
60
60
60
60
60
F0
ENDCHAR
STARTCHAR uni01D0
ENCODING 464
SWIDTH 389 0
DWIDTH 5 0
BBX 5 11 -1 0
BITMAP
D8
70
20
00
70
30
30
60
60
68
70
ENDCHAR
STARTCHAR uni01D1
ENCODING 465
SWIDTH 833 0
DWIDTH 12 0
BBX 11 15 0 0
BITMAP
1B00
0E00
0400
0000
0F80
30C0
6060
6060
C060
C060
C060
C0C0
C0C0
6180
3E00
ENDCHAR
STARTCHAR uni01D2
ENCODING 466
SWIDTH 574 0
DWIDTH 8 0
BBX 7 11 0 0
BITMAP
6C
38
10
00
3C
66
C6
C6
C6
CC
78
ENDCHAR
STARTCHAR uni01D3
ENCODING 467
SWIDTH 833 0
DWIDTH 12 0
BBX 10 15 1 0
BITMAP
3600
1C00
0800
0000
F1C0
6080
6080
6080
6080
C180
C100
C100
C100
E300
7E00
ENDCHAR
STARTCHAR uni01D4
ENCODING 468
SWIDTH 685 0
DWIDTH 10 0
BBX 9 11 0 0
BITMAP
3600
1C00
0800
0000
E300
6300
6300
C600
CE00
F680
6700
ENDCHAR
STARTCHAR uni01D5
ENCODING 469
SWIDTH 833 0
DWIDTH 12 0
BBX 10 16 1 0
BITMAP
3E00
0000
1200
1200
0000
F1C0
6080
6080
6080
6080
C180
C100
C100
C100
E300
7E00
ENDCHAR
STARTCHAR uni01D6
ENCODING 470
SWIDTH 685 0
DWIDTH 10 0
BBX 9 12 0 0
BITMAP
3E00
0000
2400
2400
0000
E300
6300
6300
C600
CE00
F680
6700
ENDCHAR
STARTCHAR uni01D7
ENCODING 471
SWIDTH 833 0
DWIDTH 12 0
BBX 10 18 1 0
BITMAP
0300
0600
0800
0000
1200
1200
0000
F1C0
6080
6080
6080
6080
C180
C100
C100
C100
E300
7E00
ENDCHAR
STARTCHAR uni01D8
ENCODING 472
SWIDTH 685 0
DWIDTH 10 0
BBX 9 14 0 0
BITMAP
0600
0C00
1000
0000
2400
2400
0000
E300
6300
6300
C600
CE00
F680
6700
ENDCHAR
STARTCHAR uni01D9
ENCODING 473
SWIDTH 833 0
DWIDTH 12 0
BBX 10 18 1 0
BITMAP
3600
1C00
0800
0000
1200
1200
0000
F1C0
6080
6080
6080
6080
C180
C100
C100
C100
E300
7E00
ENDCHAR
STARTCHAR uni01DA
ENCODING 474
SWIDTH 685 0
DWIDTH 10 0
BBX 9 14 0 0
BITMAP
3600
1C00
0800
0000
2400
2400
0000
E300
6300
6300
C600
CE00
F680
6700
ENDCHAR
STARTCHAR uni01DB
ENCODING 475
SWIDTH 833 0
DWIDTH 12 0
BBX 10 18 1 0
BITMAP
3000
1800
0400
0000
1200
1200
0000
F1C0
6080
6080
6080
6080
C180
C100
C100
C100
E300
7E00
ENDCHAR
STARTCHAR uni01DC
ENCODING 476
SWIDTH 685 0
DWIDTH 10 0
BBX 9 14 0 0
BITMAP
6000
3000
0800
0000
2400
2400
0000
E300
6300
6300
C600
CE00
F680
6700
ENDCHAR
STARTCHAR uni01DD
ENCODING 477
SWIDTH 519 0
DWIDTH 8 0
BBX 7 7 0 0
BITMAP
3C
46
06
7E
C6
CC
78
ENDCHAR
STARTCHAR uni01DE
ENCODING 478
SWIDTH 741 0
DWIDTH 11 0
BBX 11 16 -1 0
BITMAP
0F80
0000
0480
0480
0000
0300
0300
0700
0580
0980
0980
1180
1FC0
20C0
60C0
F1E0
ENDCHAR
STARTCHAR uni01DF
ENCODING 479
SWIDTH 667 0
DWIDTH 10 0
BBX 9 12 0 0
BITMAP
3E00
0000
2400
2400
0000
3B00
6700
C300
C600
C600
CE80
7700
ENDCHAR
STARTCHAR uni01E0
ENCODING 480
SWIDTH 741 0
DWIDTH 11 0
BBX 11 16 -1 0
BITMAP
0F80
0000
0200
0200
0000
0300
0300
0700
0580
0980
0980
1180
1FC0
20C0
60C0
F1E0
ENDCHAR
STARTCHAR uni01E1
ENCODING 481
SWIDTH 667 0
DWIDTH 10 0
BBX 9 12 0 0
BITMAP
3E00
0000
0800
0800
0000
3B00
6700
C300
C600
C600
CE80
7700
ENDCHAR
STARTCHAR uni01E2
ENCODING 482
SWIDTH 889 0
DWIDTH 14 0
BBX 14 13 -1 0
BITMAP
03E0
0000
0FFC
0584
0D84
0990
1990
11F0
3F10
2310
6304
4304
E7FC
ENDCHAR
STARTCHAR uni01E3
ENCODING 483
SWIDTH 815 0
DWIDTH 13 0
BBX 12 9 0 0
BITMAP
0F80
0000
39E0
6730
0630
7FE0
C600
CE20
73C0
ENDCHAR
STARTCHAR uni01E4
ENCODING 484
SWIDTH 815 0
DWIDTH 11 0
BBX 11 11 0 0
BITMAP
0F40
30C0
6040
6040
C000
C000
C7C0
C180
C3E0
6300
3D00
ENDCHAR
STARTCHAR uni01E5
ENCODING 485
SWIDTH 611 0
DWIDTH 8 0
BBX 9 12 -1 -3
BITMAP
0180
0380
1E00
2300
6300
6200
3C00
4000
7E00
FF80
8300
FC00
ENDCHAR
STARTCHAR Gcaron
ENCODING 486
SWIDTH 815 0
DWIDTH 11 0
BBX 10 15 0 0
BITMAP
1B00
0E00
0400
0000
0F40
30C0
6040
6040
C000
C000
C7C0
C180
C180
6300
3D00
ENDCHAR
STARTCHAR gcaron
ENCODING 487
SWIDTH 611 0
DWIDTH 8 0
BBX 9 16 -1 -3
BITMAP
1B00
0E00
0400
0000
0180
0380
1E00
2300
6300
6200
3C00
4000
7E00
7F00
8300
FC00
ENDCHAR
STARTCHAR uni01E8
ENCODING 488
SWIDTH 778 0
DWIDTH 12 0
BBX 11 15 0 0
BITMAP
1B00
0E00
0400
0000
79E0
3080
3100
3200
3400
3E00
7700
6300
6380
61C0
F3E0
ENDCHAR
STARTCHAR uni01E9
ENCODING 489
SWIDTH 648 0
DWIDTH 9 0
BBX 8 15 0 0
BITMAP
6C
38
10
00
70
30
30
60
6F
73
66
F8
CC
CF
C6
ENDCHAR
STARTCHAR uni01EA
ENCODING 490
SWIDTH 833 0
DWIDTH 12 0
BBX 11 14 0 -3
BITMAP
0F80
30C0
6060
6060
C060
C060
C060
C0C0
C0C0
6180
3E00
0400
0800
0E00
ENDCHAR
STARTCHAR uni01EB
ENCODING 491
SWIDTH 574 0
DWIDTH 8 0
BBX 7 10 0 -3
BITMAP
3C
66
C6
C6
C6
CC
78
10
20
38
ENDCHAR
STARTCHAR uni01EC
ENCODING 492
SWIDTH 833 0
DWIDTH 12 0
BBX 11 16 0 -3
BITMAP
1F00
0000
0F80
30C0
6060
6060
C060
C060
C060
C0C0
C0C0
6180
3E00
0400
0800
0E00
ENDCHAR
STARTCHAR uni01ED
ENCODING 493
SWIDTH 574 0
DWIDTH 8 0
BBX 7 12 0 -3
BITMAP
7C
00
3C
66
C6
C6
C6
CC
78
10
20
38
ENDCHAR
STARTCHAR uni01F0
ENCODING 496
SWIDTH 370 0
DWIDTH 4 0
BBX 7 14 -3 -3
BITMAP
36
1C
08
00
1C
0C
0C
0C
18
18
18
18
D0
E0
ENDCHAR
STARTCHAR uni01F4
ENCODING 500
SWIDTH 815 0
DWIDTH 11 0
BBX 10 15 0 0
BITMAP
0180
0300
0400
0000
0F40
30C0
6040
6040
C000
C000
C7C0
C180
C180
6300
3D00
ENDCHAR
STARTCHAR uni01F5
ENCODING 501
SWIDTH 611 0
DWIDTH 8 0
BBX 9 16 -1 -3
BITMAP
0180
0300
0400
0000
0180
0380
1E00
2300
6300
6200
3C00
4000
7E00
7F00
8300
FC00
ENDCHAR
STARTCHAR uni01F8
ENCODING 504
SWIDTH 852 0
DWIDTH 13 0
BBX 12 15 0 0
BITMAP
1800
0C00
0200
0000
7870
3820
3C20
2C20
2E60
2740
6340
43C0
41C0
41C0
E0C0
ENDCHAR
STARTCHAR uni01F9
ENCODING 505
SWIDTH 685 0
DWIDTH 10 0
BBX 9 11 0 0
BITMAP
6000
3000
0800
0000
E600
6F00
7300
6300
C600
C680
C700
ENDCHAR
STARTCHAR Aringacute
ENCODING 506
SWIDTH 741 0
DWIDTH 11 0
BBX 11 19 -1 0
BITMAP
00C0
0180
0200
0000
0300
0480
0480
0300
0200
0300
0700
0500
0980
0980
1180
1FC0
20C0
60C0
F1E0
ENDCHAR
STARTCHAR aringacute
ENCODING 507
SWIDTH 667 0
DWIDTH 10 0
BBX 9 15 0 0
BITMAP
0300
0600
0800
0000
0C00
1200
0C00
0000
3B00
6700
C300
C600
C600
CE80
7700
ENDCHAR
STARTCHAR AEacute
ENCODING 508
SWIDTH 889 0
DWIDTH 14 0
BBX 14 15 -1 0
BITMAP
0060
00C0
0100
0000
0FFC
0584
0D84
0990
1990
11F0
3F10
2310
6304
4304
E7FC
ENDCHAR
STARTCHAR aeacute
ENCODING 509
SWIDTH 815 0
DWIDTH 13 0
BBX 12 11 0 0
BITMAP
0180
0300
0400
0000
39E0
6730
0630
7FE0
C600
CE20
73C0
ENDCHAR
STARTCHAR Oslashacute
ENCODING 510
SWIDTH 833 0
DWIDTH 12 0
BBX 11 15 0 0
BITMAP
0180
0300
0400
0000
0FA0
30C0
60E0
6160
C260
C460
C860
D0C0
E0C0
6180
BE00
ENDCHAR
STARTCHAR oslashacute
ENCODING 511
SWIDTH 574 0
DWIDTH 8 0
BBX 9 11 -1 0
BITMAP
0300
0600
0800
0000
1E80
3300
6700
6B00
7300
6600
BC00
ENDCHAR
STARTCHAR Scommaaccent
ENCODING 536
SWIDTH 685 0
DWIDTH 10 0
BBX 9 17 0 -6
BITMAP
1E80
7180
6080
6080
7800
3E00
0F00
8300
8300
C700
BC00
0000
1800
1800
0800
1000
2000
ENDCHAR
STARTCHAR scommaaccent
ENCODING 537
SWIDTH 481 0
DWIDTH 8 0
BBX 7 13 0 -6
BITMAP
1E
66
60
38
0C
CC
F0
00
30
30
10
20
40
ENDCHAR
STARTCHAR Tcommaaccent
ENCODING 538
SWIDTH 722 0
DWIDTH 11 0
BBX 10 17 0 -6
BITMAP
FFC0
8C40
8C40
0C00
0C00
1800
1800
1800
1800
1800
3C00
0000
0C00
0C00
0400
0800
1000
ENDCHAR
STARTCHAR tcommaaccent
ENCODING 539
SWIDTH 407 0
DWIDTH 5 0
BBX 5 15 0 -6
BITMAP
60
60
F8
60
60
C0
C0
D0
E0
00
60
60
20
40
80
ENDCHAR
STARTCHAR uni021E
ENCODING 542
SWIDTH 870 0
DWIDTH 12 0
BBX 11 15 0 0
BITMAP
1B00
0E00
0400
0000
79E0
30C0
30C0
30C0
30C0
7F80
6180
6180
6180
6180
F3C0
ENDCHAR
STARTCHAR uni021F
ENCODING 543
SWIDTH 685 0
DWIDTH 10 0
BBX 9 15 0 0
BITMAP
6C00
3800
1000
0000
7000
3000
3000
6000
6600
6F00
7300
C300
C600
C680
C700
ENDCHAR
STARTCHAR uni0226
ENCODING 550
SWIDTH 741 0
DWIDTH 11 0
BBX 11 14 -1 0
BITMAP
0200
0200
0000
0300
0300
0700
0580
0980
0980
1180
1FC0
20C0
60C0
F1E0
ENDCHAR
STARTCHAR uni0227
ENCODING 551
SWIDTH 667 0
DWIDTH 10 0
BBX 9 10 0 0
BITMAP
0800
0800
0000
3B00
6700
C300
C600
C600
CE80
7700
ENDCHAR
STARTCHAR uni0228
ENCODING 552
SWIDTH 741 0
DWIDTH 10 0
BBX 9 14 0 -3
BITMAP
7F80
3080
3080
3200
3200
7E00
6200
6200
6100
6100
FF00
0800
0400
1C00
ENDCHAR
STARTCHAR uni0229
ENCODING 553
SWIDTH 519 0
DWIDTH 8 0
BBX 7 10 0 -3
BITMAP
3C
66
C6
FC
C0
C4
78
10
08
38
ENDCHAR
STARTCHAR uni022A
ENCODING 554
SWIDTH 833 0
DWIDTH 12 0
BBX 11 16 0 0
BITMAP
0F80
0000
0900
0900
0000
0F80
30C0
6060
6060
C060
C060
C060
C0C0
C0C0
6180
3E00
ENDCHAR
STARTCHAR uni022B
ENCODING 555
SWIDTH 574 0
DWIDTH 8 0
BBX 7 12 0 0
BITMAP
7C
00
24
24
00
3C
66
C6
C6
C6
CC
78
ENDCHAR
STARTCHAR uni022C
ENCODING 556
SWIDTH 833 0
DWIDTH 12 0
BBX 11 16 0 0
BITMAP
0F80
0000
0740
0B80
0000
0F80
30C0
6060
6060
C060
C060
C060
C0C0
C0C0
6180
3E00
ENDCHAR
STARTCHAR uni022D
ENCODING 557
SWIDTH 574 0
DWIDTH 8 0
BBX 7 12 0 0
BITMAP
7C
00
3A
5C
00
3C
66
C6
C6
C6
CC
78
ENDCHAR
STARTCHAR uni022E
ENCODING 558
SWIDTH 833 0
DWIDTH 12 0
BBX 11 14 0 0
BITMAP
0400
0400
0000
0F80
30C0
6060
6060
C060
C060
C060
C0C0
C0C0
6180
3E00
ENDCHAR
STARTCHAR uni022F
ENCODING 559
SWIDTH 574 0
DWIDTH 8 0
BBX 7 10 0 0
BITMAP
10
10
00
3C
66
C6
C6
C6
CC
78
ENDCHAR
STARTCHAR uni0230
ENCODING 560
SWIDTH 833 0
DWIDTH 12 0
BBX 11 16 0 0
BITMAP
1F00
0000
0400
0400
0000
0F80
30C0
6060
6060
C060
C060
C060
C0C0
C0C0
6180
3E00
ENDCHAR
STARTCHAR uni0231
ENCODING 561
SWIDTH 574 0
DWIDTH 8 0
BBX 7 12 0 0
BITMAP
7C
00
10
10
00
3C
66
C6
C6
C6
CC
78
ENDCHAR
STARTCHAR uni0232
ENCODING 562
SWIDTH 704 0
DWIDTH 9 0
BBX 10 13 0 0
BITMAP
3E00
0000
F1C0
6080
3100
3200
1C00
1800
1800
3000
3000
3000
7800
ENDCHAR
STARTCHAR uni0233
ENCODING 563
SWIDTH 519 0
DWIDTH 9 0
BBX 9 12 -1 -3
BITMAP
3E00
0000
6180
7180
B100
1A00
1A00
0C00
0C00
0800
D000
E000
ENDCHAR
STARTCHAR uni0250
ENCODING 592
SWIDTH 667 0
DWIDTH 10 0
BBX 9 7 0 0
BITMAP
7700
B980
3180
3180
6180
7300
6E00
ENDCHAR
STARTCHAR uni0259
ENCODING 601
SWIDTH 519 0
DWIDTH 8 0
BBX 7 7 0 0
BITMAP
3C
46
06
7E
C6
CC
78
ENDCHAR
STARTCHAR uni025F
ENCODING 607
SWIDTH 389 0
DWIDTH 5 0
BBX 7 14 0 -7
BITMAP
02
06
06
06
06
0C
0C
0C
0C
3E
18
18
D0
E0
ENDCHAR
STARTCHAR uni0265
ENCODING 613
SWIDTH 685 0
DWIDTH 10 0
BBX 9 11 0 -4
BITMAP
7180
B180
3180
6180
6700
7B00
3300
0300
0600
0600
0700
ENDCHAR
STARTCHAR uni0275
ENCODING 629
SWIDTH 574 0
DWIDTH 8 0
BBX 7 7 0 0
BITMAP
3C
66
C6
FE
C6
CC
78
ENDCHAR
STARTCHAR uni0279
ENCODING 633
SWIDTH 519 0
DWIDTH 7 0
BBX 7 7 0 0
BITMAP
06
06
06
0C
0C
DC
EE
ENDCHAR
STARTCHAR uni0287
ENCODING 647
SWIDTH 407 0
DWIDTH 5 0
BBX 5 9 0 0
BITMAP
38
58
18
18
30
30
F8
30
30
ENDCHAR
STARTCHAR uni0289
ENCODING 649
SWIDTH 685 0
DWIDTH 10 0
BBX 9 7 0 0
BITMAP
E300
6300
6300
FF80
CE00
F680
6700
ENDCHAR
STARTCHAR uni028C
ENCODING 652
SWIDTH 556 0
DWIDTH 8 0
BBX 7 7 0 0
BITMAP
3C
66
46
86
8C
CC
CE
ENDCHAR
STARTCHAR uni028D
ENCODING 653
SWIDTH 833 0
DWIDTH 13 0
BBX 12 7 0 0
BITMAP
3CE0
6730
4630
8630
8C60
CC60
CC70
ENDCHAR
STARTCHAR uni028E
ENCODING 654
SWIDTH 519 0
DWIDTH 9 0
BBX 9 10 -1 0
BITMAP
0380
0580
0800
1800
1800
2C00
2C00
4680
C700
C300
ENDCHAR
STARTCHAR uni029E
ENCODING 670
SWIDTH 648 0
DWIDTH 9 0
BBX 8 11 0 -4
BITMAP
63
F3
33
1F
66
CE
F6
06
0C
0C
0E
ENDCHAR
STARTCHAR uni02BB
ENCODING 699
SWIDTH 259 0
DWIDTH 4 0
BBX 3 5 1 6
BITMAP
20
40
80
C0
C0
ENDCHAR
STARTCHAR afii57929
ENCODING 700
SWIDTH 259 0
DWIDTH 4 0
BBX 3 5 0 6
BITMAP
60
60
20
40
80
ENDCHAR
STARTCHAR afii64937
ENCODING 701
SWIDTH 259 0
DWIDTH 4 0
BBX 3 5 0 6
BITMAP
C0
C0
80
40
20
ENDCHAR
STARTCHAR circumflex
ENCODING 710
SWIDTH 333 0
DWIDTH 6 0
BBX 5 3 0 8
BITMAP
20
70
D8
ENDCHAR
STARTCHAR caron
ENCODING 711
SWIDTH 333 0
DWIDTH 6 0
BBX 5 3 0 8
BITMAP
D8
70
20
ENDCHAR
STARTCHAR uni02C8
ENCODING 712
SWIDTH 287 0
DWIDTH 4 0
BBX 2 4 1 7
BITMAP
C0
C0
C0
80
ENDCHAR
STARTCHAR macron
ENCODING 713
SWIDTH 333 0
DWIDTH 6 0
BBX 5 1 0 8
BITMAP
F8
ENDCHAR
STARTCHAR uni02CA
ENCODING 714
SWIDTH 333 0
DWIDTH 5 0
BBX 4 3 0 8
BITMAP
30
60
80
ENDCHAR
STARTCHAR uni02CB
ENCODING 715
SWIDTH 333 0
DWIDTH 5 0
BBX 4 3 0 8
BITMAP
C0
60
10
ENDCHAR
STARTCHAR uni02CD
ENCODING 717
SWIDTH 333 0
DWIDTH 6 0
BBX 5 1 0 -2
BITMAP
F8
ENDCHAR
STARTCHAR uni02CE
ENCODING 718
SWIDTH 333 0
DWIDTH 5 0
BBX 4 3 0 -4
BITMAP
C0
60
10
ENDCHAR
STARTCHAR uni02CF
ENCODING 719
SWIDTH 333 0
DWIDTH 5 0
BBX 4 3 0 -4
BITMAP
30
60
80
ENDCHAR
STARTCHAR breve
ENCODING 728
SWIDTH 333 0
DWIDTH 6 0
BBX 5 3 0 8
BITMAP
88
88
70
ENDCHAR
STARTCHAR dotaccent
ENCODING 729
SWIDTH 333 0
DWIDTH 5 0
BBX 1 2 1 8
BITMAP
80
80
ENDCHAR
STARTCHAR ring
ENCODING 730
SWIDTH 333 0
DWIDTH 5 0
BBX 4 3 0 8
BITMAP
60
90
60
ENDCHAR
STARTCHAR ogonek
ENCODING 731
SWIDTH 333 0
DWIDTH 5 0
BBX 3 3 0 -3
BITMAP
40
80
E0
ENDCHAR
STARTCHAR tilde
ENCODING 732
SWIDTH 333 0
DWIDTH 6 0
BBX 5 2 0 8
BITMAP
68
B0
ENDCHAR
STARTCHAR hungarumlaut
ENCODING 733
SWIDTH 333 0
DWIDTH 9 0
BBX 8 3 0 8
BITMAP
33
66
88
ENDCHAR
STARTCHAR uni02EE
ENCODING 750
SWIDTH 481 0
DWIDTH 7 0
BBX 6 5 0 6
BITMAP
6C
6C
24
48
90
ENDCHAR
STARTCHAR uni037E
ENCODING 894
SWIDTH 287 0
DWIDTH 5 0
BBX 4 10 0 -3
BITMAP
30
30
00
00
00
60
60
20
40
80
ENDCHAR
STARTCHAR tonos
ENCODING 900
SWIDTH 333 0
DWIDTH 5 0
BBX 4 3 0 8
BITMAP
30
60
80
ENDCHAR
STARTCHAR dieresistonos
ENCODING 901
SWIDTH 333 0
DWIDTH 6 0
BBX 5 6 0 8
BITMAP
18
30
40
00
90
90
ENDCHAR
STARTCHAR anoteleia
ENCODING 903
SWIDTH 287 0
DWIDTH 5 0
BBX 2 3 1 3
BITMAP
C0
C0
C0
ENDCHAR
STARTCHAR mu
ENCODING 956
SWIDTH 576 0
DWIDTH 10 0
BBX 10 10 -1 -3
BITMAP
7180
3180
3180
6300
6700
7B40
7380
8000
C000
C000
ENDCHAR
STARTCHAR uni1E00
ENCODING 7680
SWIDTH 741 0
DWIDTH 11 0
BBX 11 15 -1 -4
BITMAP
0300
0300
0700
0580
0980
0980
1180
1FC0
20C0
60C0
F1E0
0000
0600
0900
0600
ENDCHAR
STARTCHAR uni1E01
ENCODING 7681
SWIDTH 667 0
DWIDTH 10 0
BBX 9 11 0 -4
BITMAP
3B00
6700
C300
C600
C600
CE80
7700
0000
0C00
1200
0C00
ENDCHAR
STARTCHAR uni1E02
ENCODING 7682
SWIDTH 759 0
DWIDTH 10 0
BBX 9 14 0 0
BITMAP
0800
0800
0000
7F00
3180
3180
3180
3300
7E00
6180
6180
6180
6300
FE00
ENDCHAR
STARTCHAR uni1E03
ENCODING 7683
SWIDTH 611 0
DWIDTH 8 0
BBX 7 14 0 0
BITMAP
10
10
00
70
30
30
60
7C
66
C6
C6
C6
CC
78
ENDCHAR
STARTCHAR uni1E04
ENCODING 7684
SWIDTH 759 0
DWIDTH 10 0
BBX 9 14 0 -3
BITMAP
7F00
3180
3180
3180
3300
7E00
6180
6180
6180
6300
FE00
0000
0800
0800
ENDCHAR
STARTCHAR uni1E05
ENCODING 7685
SWIDTH 611 0
DWIDTH 8 0
BBX 7 14 0 -3
BITMAP
70
30
30
60
7C
66
C6
C6
C6
CC
78
00
10
10
ENDCHAR
STARTCHAR uni1E06
ENCODING 7686
SWIDTH 759 0
DWIDTH 10 0
BBX 9 13 0 -2
BITMAP
7F00
3180
3180
3180
3300
7E00
6180
6180
6180
6300
FE00
0000
3E00
ENDCHAR
STARTCHAR uni1E07
ENCODING 7687
SWIDTH 611 0
DWIDTH 8 0
BBX 7 13 0 -2
BITMAP
70
30
30
60
7C
66
C6
C6
C6
CC
78
00
7C
ENDCHAR
STARTCHAR uni1E08
ENCODING 7688
SWIDTH 759 0
DWIDTH 11 0
BBX 10 18 0 -3
BITMAP
0300
0600
0800
0000
0F40
30C0
6040
6040
C000
C000
C000
C000
C080
6180
3E00
0800
0400
1C00
ENDCHAR
STARTCHAR uni1E09
ENCODING 7689
SWIDTH 537 0
DWIDTH 8 0
BBX 7 14 0 -3
BITMAP
06
0C
10
00
3C
66
C6
C0
C0
C4
78
20
10
70
ENDCHAR
STARTCHAR uni1E0A
ENCODING 7690
SWIDTH 833 0
DWIDTH 12 0
BBX 11 14 0 0
BITMAP
0400
0400
0000
7F80
30C0
3060
3060
3060
6060
6060
60C0
60C0
6180
FE00
ENDCHAR
STARTCHAR uni1E0B
ENCODING 7691
SWIDTH 667 0
DWIDTH 10 0
BBX 9 14 0 0
BITMAP
0200
0200
0000
0380
0180
0180
0300
3B00
6700
C300
C600
C600
CE80
7700
ENDCHAR
STARTCHAR uni1E0C
ENCODING 7692
SWIDTH 833 0
DWIDTH 12 0
BBX 11 14 0 -3
BITMAP
7F80
30C0
3060
3060
3060
6060
6060
60C0
60C0
6180
FE00
0000
0800
0800
ENDCHAR
STARTCHAR uni1E0D
ENCODING 7693
SWIDTH 667 0
DWIDTH 10 0
BBX 9 14 0 -3
BITMAP
0380
0180
0180
0300
3B00
6700
C300
C600
C600
CE80
7700
0000
0800
0800
ENDCHAR
STARTCHAR uni1E0E
ENCODING 7694
SWIDTH 833 0
DWIDTH 12 0
BBX 11 13 0 -2
BITMAP
7F80
30C0
3060
3060
3060
6060
6060
60C0
60C0
6180
FE00
0000
3E00
ENDCHAR
STARTCHAR uni1E0F
ENCODING 7695
SWIDTH 667 0
DWIDTH 10 0
BBX 9 13 0 -2
BITMAP
0380
0180
0180
0300
3B00
6700
C300
C600
C600
CE80
7700
0000
3E00
ENDCHAR
STARTCHAR uni1E10
ENCODING 7696
SWIDTH 833 0
DWIDTH 12 0
BBX 11 14 0 -3
BITMAP
7F80
30C0
3060
3060
3060
6060
6060
60C0
60C0
6180
FE00
0800
0400
1C00
ENDCHAR
STARTCHAR uni1E11
ENCODING 7697
SWIDTH 667 0
DWIDTH 10 0
BBX 9 14 0 -3
BITMAP
0380
0180
0180
0300
3B00
6700
C300
C600
C600
CE80
7700
0800
0400
1C00
ENDCHAR
STARTCHAR uni1E12
ENCODING 7698
SWIDTH 833 0
DWIDTH 12 0
BBX 11 15 0 -4
BITMAP
7F80
30C0
3060
3060
3060
6060
6060
60C0
60C0
6180
FE00
0000
0800
1C00
3600
ENDCHAR
STARTCHAR uni1E13
ENCODING 7699
SWIDTH 667 0
DWIDTH 10 0
BBX 9 15 0 -4
BITMAP
0380
0180
0180
0300
3B00
6700
C300
C600
C600
CE80
7700
0000
0800
1C00
3600
ENDCHAR
STARTCHAR uni1E14
ENCODING 7700
SWIDTH 741 0
DWIDTH 10 0
BBX 9 17 0 0
BITMAP
3000
1800
0400
0000
3E00
0000
7F80
3080
3080
3200
3200
7E00
6200
6200
6100
6100
FF00
ENDCHAR
STARTCHAR uni1E15
ENCODING 7701
SWIDTH 519 0
DWIDTH 8 0
BBX 7 13 0 0
BITMAP
60
30
08
00
7C
00
3C
66
C6
FC
C0
C4
78
ENDCHAR
STARTCHAR uni1E16
ENCODING 7702
SWIDTH 741 0
DWIDTH 10 0
BBX 9 17 0 0
BITMAP
0300
0600
0800
0000
3E00
0000
7F80
3080
3080
3200
3200
7E00
6200
6200
6100
6100
FF00
ENDCHAR
STARTCHAR uni1E17
ENCODING 7703
SWIDTH 519 0
DWIDTH 8 0
BBX 7 13 0 0
BITMAP
06
0C
10
00
7C
00
3C
66
C6
FC
C0
C4
78
ENDCHAR
STARTCHAR uni1E18
ENCODING 7704
SWIDTH 741 0
DWIDTH 10 0
BBX 9 15 0 -4
BITMAP
7F80
3080
3080
3200
3200
7E00
6200
6200
6100
6100
FF00
0000
0800
1C00
3600
ENDCHAR
STARTCHAR uni1E19
ENCODING 7705
SWIDTH 519 0
DWIDTH 8 0
BBX 7 11 0 -4
BITMAP
3C
66
C6
FC
C0
C4
78
00
10
38
6C
ENDCHAR
STARTCHAR uni1E1A
ENCODING 7706
SWIDTH 741 0
DWIDTH 10 0
BBX 9 14 0 -3
BITMAP
7F80
3080
3080
3200
3200
7E00
6200
6200
6100
6100
FF00
0000
3400
5800
ENDCHAR
STARTCHAR uni1E1B
ENCODING 7707
SWIDTH 519 0
DWIDTH 8 0
BBX 7 10 0 -3
BITMAP
3C
66
C6
FC
C0
C4
78
00
68
B0
ENDCHAR
STARTCHAR uni1E1C
ENCODING 7708
SWIDTH 741 0
DWIDTH 10 0
BBX 9 18 0 -3
BITMAP
2200
2200
1C00
0000
7F80
3080
3080
3200
3200
7E00
6200
6200
6100
6100
FF00
0800
0400
1C00
ENDCHAR
STARTCHAR uni1E1D
ENCODING 7709
SWIDTH 519 0
DWIDTH 8 0
BBX 7 14 0 -3
BITMAP
44
44
38
00
3C
66
C6
FC
C0
C4
78
10
08
38
ENDCHAR
STARTCHAR uni1E1E
ENCODING 7710
SWIDTH 704 0
DWIDTH 10 0
BBX 9 14 0 0
BITMAP
0800
0800
0000
7F80
3080
3080
3200
3200
7E00
6200
6200
6000
6000
F000
ENDCHAR
STARTCHAR uni1E1F
ENCODING 7711
SWIDTH 389 0
DWIDTH 5 0
BBX 7 17 0 -3
BITMAP
08
08
00
0E
16
30
30
F8
60
60
60
60
C0
C0
C0
C0
80
ENDCHAR
STARTCHAR uni1E20
ENCODING 7712
SWIDTH 815 0
DWIDTH 11 0
BBX 10 13 0 0
BITMAP
1F00
0000
0F40
30C0
6040
6040
C000
C000
C7C0
C180
C180
6300
3D00
ENDCHAR
STARTCHAR uni1E21
ENCODING 7713
SWIDTH 611 0
DWIDTH 8 0
BBX 9 14 -1 -3
BITMAP
1F00
0000
0180
0380
1E00
2300
6300
6200
3C00
4000
7E00
7F00
8300
FC00
ENDCHAR
STARTCHAR uni1E22
ENCODING 7714
SWIDTH 870 0
DWIDTH 12 0
BBX 11 14 0 0
BITMAP
0400
0400
0000
79E0
30C0
30C0
30C0
30C0
7F80
6180
6180
6180
6180
F3C0
ENDCHAR
STARTCHAR uni1E23
ENCODING 7715
SWIDTH 685 0
DWIDTH 10 0
BBX 9 14 0 0
BITMAP
1000
1000
0000
7000
3000
3000
6000
6600
6F00
7300
C300
C600
C680
C700
ENDCHAR
STARTCHAR uni1E24
ENCODING 7716
SWIDTH 870 0
DWIDTH 12 0
BBX 11 14 0 -3
BITMAP
79E0
30C0
30C0
30C0
30C0
7F80
6180
6180
6180
6180
F3C0
0000
0400
0400
ENDCHAR
STARTCHAR uni1E25
ENCODING 7717
SWIDTH 685 0
DWIDTH 10 0
BBX 9 14 0 -3
BITMAP
7000
3000
3000
6000
6600
6F00
7300
C300
C600
C680
C700
0000
0800
0800
ENDCHAR
STARTCHAR uni1E26
ENCODING 7718
SWIDTH 870 0
DWIDTH 12 0
BBX 11 14 0 0
BITMAP
0900
0900
0000
79E0
30C0
30C0
30C0
30C0
7F80
6180
6180
6180
6180
F3C0
ENDCHAR
STARTCHAR uni1E27
ENCODING 7719
SWIDTH 685 0
DWIDTH 10 0
BBX 9 14 0 0
BITMAP
4800
4800
0000
7000
3000
3000
6000
6600
6F00
7300
C300
C600
C680
C700
ENDCHAR
STARTCHAR uni1E28
ENCODING 7720
SWIDTH 870 0
DWIDTH 12 0
BBX 11 14 0 -3
BITMAP
79E0
30C0
30C0
30C0
30C0
7F80
6180
6180
6180
6180
F3C0
0400
0200
0E00
ENDCHAR
STARTCHAR uni1E29
ENCODING 7721
SWIDTH 685 0
DWIDTH 10 0
BBX 9 14 0 -3
BITMAP
7000
3000
3000
6000
6600
6F00
7300
C300
C600
C680
C700
0800
0400
1C00
ENDCHAR
STARTCHAR uni1E2A
ENCODING 7722
SWIDTH 870 0
DWIDTH 12 0
BBX 11 15 0 -4
BITMAP
79E0
30C0
30C0
30C0
30C0
7F80
6180
6180
6180
6180
F3C0
0000
1100
1100
0E00
ENDCHAR
STARTCHAR uni1E2B
ENCODING 7723
SWIDTH 685 0
DWIDTH 10 0
BBX 9 15 0 -4
BITMAP
7000
3000
3000
6000
6600
6F00
7300
C300
C600
C680
C700
0000
2200
2200
1C00
ENDCHAR
STARTCHAR uni1E2C
ENCODING 7724
SWIDTH 444 0
DWIDTH 6 0
BBX 6 14 -1 -3
BITMAP
3C
18
18
18
18
30
30
30
30
30
78
00
68
B0
ENDCHAR
STARTCHAR uni1E2D
ENCODING 7725
SWIDTH 389 0
DWIDTH 5 0
BBX 5 13 -1 -3
BITMAP
18
18
00
70
30
30
60
60
68
70
00
68
B0
ENDCHAR
STARTCHAR uni1E2E
ENCODING 7726
SWIDTH 444 0
DWIDTH 6 0
BBX 6 18 0 0
BITMAP
0C
18
20
00
48
48
00
78
30
30
30
30
60
60
60
60
60
F0
ENDCHAR
STARTCHAR uni1E2F
ENCODING 7727
SWIDTH 389 0
DWIDTH 5 0
BBX 5 14 0 0
BITMAP
18
30
40
00
90
90
00
E0
60
60
C0
C0
D0
E0
ENDCHAR
STARTCHAR uni1E30
ENCODING 7728
SWIDTH 778 0
DWIDTH 12 0
BBX 11 15 0 0
BITMAP
0300
0600
0800
0000
79E0
3080
3100
3200
3400
3E00
7700
6300
6380
61C0
F3E0
ENDCHAR
STARTCHAR uni1E31
ENCODING 7729
SWIDTH 648 0
DWIDTH 9 0
BBX 8 15 0 0
BITMAP
0C
18
20
00
70
30
30
60
6F
73
66
F8
CC
CF
C6
ENDCHAR
STARTCHAR uni1E32
ENCODING 7730
SWIDTH 778 0
DWIDTH 12 0
BBX 11 14 0 -3
BITMAP
79E0
3080
3100
3200
3400
3E00
7700
6300
6380
61C0
F3E0
0000
0400
0400
ENDCHAR
STARTCHAR uni1E33
ENCODING 7731
SWIDTH 648 0
DWIDTH 9 0
BBX 8 14 0 -3
BITMAP
70
30
30
60
6F
73
66
F8
CC
CF
C6
00
10
10
ENDCHAR
STARTCHAR uni1E34
ENCODING 7732
SWIDTH 778 0
DWIDTH 12 0
BBX 11 13 0 -2
BITMAP
79E0
3080
3100
3200
3400
3E00
7700
6300
6380
61C0
F3E0
0000
1F00
ENDCHAR
STARTCHAR uni1E35
ENCODING 7733
SWIDTH 648 0
DWIDTH 9 0
BBX 8 13 0 -2
BITMAP
70
30
30
60
6F
73
66
F8
CC
CF
C6
00
7C
ENDCHAR
STARTCHAR uni1E36
ENCODING 7734
SWIDTH 704 0
DWIDTH 10 0
BBX 9 14 0 -3
BITMAP
7800
3000
3000
3000
3000
6000
6000
6000
6080
6080
FF80
0000
0800
0800
ENDCHAR
STARTCHAR uni1E37
ENCODING 7735
SWIDTH 389 0
DWIDTH 5 0
BBX 4 14 0 -3
BITMAP
70
30
30
60
60
60
60
C0
C0
D0
E0
00
40
40
ENDCHAR
STARTCHAR uni1E38
ENCODING 7736
SWIDTH 704 0
DWIDTH 10 0
BBX 9 16 0 -3
BITMAP
7C00
0000
7800
3000
3000
3000
3000
6000
6000
6000
6080
6080
FF80
0000
0800
0800
ENDCHAR
STARTCHAR uni1E39
ENCODING 7737
SWIDTH 389 0
DWIDTH 5 0
BBX 5 16 0 -3
BITMAP
F8
00
70
30
30
60
60
60
60
C0
C0
D0
E0
00
40
40
ENDCHAR
STARTCHAR uni1E3A
ENCODING 7738
SWIDTH 704 0
DWIDTH 10 0
BBX 9 13 0 -2
BITMAP
7800
3000
3000
3000
3000
6000
6000
6000
6080
6080
FF80
0000
3E00
ENDCHAR
STARTCHAR uni1E3B
ENCODING 7739
SWIDTH 389 0
DWIDTH 5 0
BBX 5 13 -1 -2
BITMAP
38
18
18
30
30
30
30
60
60
68
70
00
F8
ENDCHAR
STARTCHAR uni1E3C
ENCODING 7740
SWIDTH 704 0
DWIDTH 10 0
BBX 9 15 0 -4
BITMAP
7800
3000
3000
3000
3000
6000
6000
6000
6080
6080
FF80
0000
0800
1C00
3600
ENDCHAR
STARTCHAR uni1E3D
ENCODING 7741
SWIDTH 389 0
DWIDTH 5 0
BBX 5 15 -1 -4
BITMAP
38
18
18
30
30
30
30
60
60
68
70
00
20
70
D8
ENDCHAR
STARTCHAR uni1E3E
ENCODING 7742
SWIDTH 944 0
DWIDTH 15 0
BBX 14 15 0 0
BITMAP
00C0
0180
0200
0000
783C
3838
3858
2C58
2C98
2C98
6D30
4730
4630
4630
E678
ENDCHAR
STARTCHAR uni1E3F
ENCODING 7743
SWIDTH 944 0
DWIDTH 15 0
BBX 14 11 0 0
BITMAP
00C0
0180
0200
0000
E630
6F78
7398
6318
C630
C634
C638
ENDCHAR
STARTCHAR uni1E40
ENCODING 7744
SWIDTH 944 0
DWIDTH 15 0
BBX 14 14 0 0
BITMAP
0100
0100
0000
783C
3838
3858
2C58
2C98
2C98
6D30
4730
4630
4630
E678
ENDCHAR
STARTCHAR uni1E41
ENCODING 7745
SWIDTH 944 0
DWIDTH 15 0
BBX 14 10 0 0
BITMAP
0200
0200
0000
E630
6F78
7398
6318
C630
C634
C638
ENDCHAR
STARTCHAR uni1E42
ENCODING 7746
SWIDTH 944 0
DWIDTH 15 0
BBX 14 14 0 -3
BITMAP
783C
3838
3858
2C58
2C98
2C98
6D30
4730
4630
4630
E678
0000
0200
0200
ENDCHAR
STARTCHAR uni1E43
ENCODING 7747
SWIDTH 944 0
DWIDTH 15 0
BBX 14 10 0 -3
BITMAP
E630
6F78
7398
6318
C630
C634
C638
0000
0100
0100
ENDCHAR
STARTCHAR uni1E44
ENCODING 7748
SWIDTH 852 0
DWIDTH 13 0
BBX 12 14 0 0
BITMAP
0400
0400
0000
7870
3820
3C20
2C20
2E60
2740
6340
43C0
41C0
41C0
E0C0
ENDCHAR
STARTCHAR uni1E45
ENCODING 7749
SWIDTH 685 0
DWIDTH 10 0
BBX 9 10 0 0
BITMAP
0800
0800
0000
E600
6F00
7300
6300
C600
C680
C700
ENDCHAR
STARTCHAR uni1E46
ENCODING 7750
SWIDTH 852 0
DWIDTH 13 0
BBX 12 14 0 -3
BITMAP
7870
3820
3C20
2C20
2E60
2740
6340
43C0
41C0
41C0
E0C0
0000
0400
0400
ENDCHAR
STARTCHAR uni1E47
ENCODING 7751
SWIDTH 685 0
DWIDTH 10 0
BBX 9 10 0 -3
BITMAP
E600
6F00
7300
6300
C600
C680
C700
0000
0800
0800
ENDCHAR
STARTCHAR uni1E48
ENCODING 7752
SWIDTH 852 0
DWIDTH 13 0
BBX 12 13 0 -2
BITMAP
7870
3820
3C20
2C20
2E60
2740
6340
43C0
41C0
41C0
E0C0
0000
1F00
ENDCHAR
STARTCHAR uni1E49
ENCODING 7753
SWIDTH 685 0
DWIDTH 10 0
BBX 9 9 0 -2
BITMAP
E600
6F00
7300
6300
C600
C680
C700
0000
3E00
ENDCHAR
STARTCHAR uni1E4A
ENCODING 7754
SWIDTH 852 0
DWIDTH 13 0
BBX 12 15 0 -4
BITMAP
7870
3820
3C20
2C20
2E60
2740
6340
43C0
41C0
41C0
E0C0
0000
0400
0E00
1B00
ENDCHAR
STARTCHAR uni1E4B
ENCODING 7755
SWIDTH 685 0
DWIDTH 10 0
BBX 9 11 0 -4
BITMAP
E600
6F00
7300
6300
C600
C680
C700
0000
0800
1C00
3600
ENDCHAR
STARTCHAR uni1E4C
ENCODING 7756
SWIDTH 833 0
DWIDTH 12 0
BBX 11 18 0 0
BITMAP
0180
0300
0400
0000
0740
0B80
0000
0F80
30C0
6060
6060
C060
C060
C060
C0C0
C0C0
6180
3E00
ENDCHAR
STARTCHAR uni1E4D
ENCODING 7757
SWIDTH 574 0
DWIDTH 8 0
BBX 7 14 0 0
BITMAP
06
0C
10
00
3A
5C
00
3C
66
C6
C6
C6
CC
78
ENDCHAR
STARTCHAR uni1E4E
ENCODING 7758
SWIDTH 833 0
DWIDTH 12 0
BBX 11 17 0 0
BITMAP
0900
0900
0000
0740
0B80
0000
0F80
30C0
6060
6060
C060
C060
C060
C0C0
C0C0
6180
3E00
ENDCHAR
STARTCHAR uni1E4F
ENCODING 7759
SWIDTH 574 0
DWIDTH 8 0
BBX 7 13 0 0
BITMAP
24
24
00
3A
5C
00
3C
66
C6
C6
C6
CC
78
ENDCHAR
STARTCHAR uni1E50
ENCODING 7760
SWIDTH 833 0
DWIDTH 12 0
BBX 11 17 0 0
BITMAP
1800
0C00
0200
0000
1F00
0000
0F80
30C0
6060
6060
C060
C060
C060
C0C0
C0C0
6180
3E00
ENDCHAR
STARTCHAR uni1E51
ENCODING 7761
SWIDTH 574 0
DWIDTH 8 0
BBX 7 13 0 0
BITMAP
60
30
08
00
7C
00
3C
66
C6
C6
C6
CC
78
ENDCHAR
STARTCHAR uni1E52
ENCODING 7762
SWIDTH 833 0
DWIDTH 12 0
BBX 11 17 0 0
BITMAP
0180
0300
0400
0000
1F00
0000
0F80
30C0
6060
6060
C060
C060
C060
C0C0
C0C0
6180
3E00
ENDCHAR
STARTCHAR uni1E53
ENCODING 7763
SWIDTH 574 0
DWIDTH 8 0
BBX 7 13 0 0
BITMAP
06
0C
10
00
7C
00
3C
66
C6
C6
C6
CC
78
ENDCHAR
STARTCHAR uni1E54
ENCODING 7764
SWIDTH 741 0
DWIDTH 11 0
BBX 10 15 0 0
BITMAP
0300
0600
0800
0000
7F80
30C0
30C0
30C0
3180
3F00
6000
6000
6000
6000
F000
ENDCHAR
STARTCHAR uni1E55
ENCODING 7765
SWIDTH 648 0
DWIDTH 8 0
BBX 9 14 -2 -3
BITMAP
0300
0600
0800
0000
3B00
1D80
1980
3180
3180
3300
3E00
6000
6000
F000
ENDCHAR
STARTCHAR uni1E56
ENCODING 7766
SWIDTH 741 0
DWIDTH 11 0
BBX 10 14 0 0
BITMAP
0400
0400
0000
7F80
30C0
30C0
30C0
3180
3F00
6000
6000
6000
6000
F000
ENDCHAR
STARTCHAR uni1E57
ENCODING 7767
SWIDTH 648 0
DWIDTH 8 0
BBX 9 13 -2 -3
BITMAP
0400
0400
0000
3B00
1D80
1980
3180
3180
3300
3E00
6000
6000
F000
ENDCHAR
STARTCHAR uni1E58
ENCODING 7768
SWIDTH 796 0
DWIDTH 12 0
BBX 11 14 0 0
BITMAP
0400
0400
0000
7F80
30C0
30C0
30C0
3180
3E00
6300
6300
6180
61A0
F1C0
ENDCHAR
STARTCHAR uni1E59
ENCODING 7769
SWIDTH 519 0
DWIDTH 7 0
BBX 7 10 0 0
BITMAP
10
10
00
EE
76
60
60
C0
C0
C0
ENDCHAR
STARTCHAR uni1E5A
ENCODING 7770
SWIDTH 796 0
DWIDTH 12 0
BBX 11 14 0 -3
BITMAP
7F80
30C0
30C0
30C0
3180
3E00
6300
6300
6180
61A0
F1C0
0000
0400
0400
ENDCHAR
STARTCHAR uni1E5B
ENCODING 7771
SWIDTH 519 0
DWIDTH 7 0
BBX 7 10 0 -3
BITMAP
EE
76
60
60
C0
C0
C0
00
40
40
ENDCHAR
STARTCHAR uni1E5C
ENCODING 7772
SWIDTH 796 0
DWIDTH 12 0
BBX 11 16 0 -3
BITMAP
1F00
0000
7F80
30C0
30C0
30C0
3180
3E00
6300
6300
6180
61A0
F1C0
0000
0400
0400
ENDCHAR
STARTCHAR uni1E5D
ENCODING 7773
SWIDTH 519 0
DWIDTH 7 0
BBX 7 12 0 -3
BITMAP
7C
00
EE
76
60
60
C0
C0
C0
00
40
40
ENDCHAR
STARTCHAR uni1E5E
ENCODING 7774
SWIDTH 796 0
DWIDTH 12 0
BBX 11 13 0 -2
BITMAP
7F80
30C0
30C0
30C0
3180
3E00
6300
6300
6180
61A0
F1C0
0000
1F00
ENDCHAR
STARTCHAR uni1E5F
ENCODING 7775
SWIDTH 519 0
DWIDTH 7 0
BBX 8 9 -1 -2
BITMAP
77
3B
30
30
60
60
60
00
F8
ENDCHAR
STARTCHAR uni1E60
ENCODING 7776
SWIDTH 685 0
DWIDTH 10 0
BBX 9 14 0 0
BITMAP
0800
0800
0000
1E80
7180
6080
6080
7800
3E00
0F00
8300
8300
C700
BC00
ENDCHAR
STARTCHAR uni1E61
ENCODING 7777
SWIDTH 481 0
DWIDTH 8 0
BBX 7 10 0 0
BITMAP
08
08
00
1E
66
60
38
0C
CC
F0
ENDCHAR
STARTCHAR uni1E62
ENCODING 7778
SWIDTH 685 0
DWIDTH 10 0
BBX 9 14 0 -3
BITMAP
1E80
7180
6080
6080
7800
3E00
0F00
8300
8300
C700
BC00
0000
0800
0800
ENDCHAR
STARTCHAR uni1E63
ENCODING 7779
SWIDTH 481 0
DWIDTH 8 0
BBX 7 10 0 -3
BITMAP
1E
66
60
38
0C
CC
F0
00
20
20
ENDCHAR
STARTCHAR uni1E64
ENCODING 7780
SWIDTH 685 0
DWIDTH 10 0
BBX 9 18 0 0
BITMAP
0400
0400
0000
0300
0600
0800
0000
1E80
7180
6080
6080
7800
3E00
0F00
8300
8300
C700
BC00
ENDCHAR
STARTCHAR uni1E65
ENCODING 7781
SWIDTH 481 0
DWIDTH 8 0
BBX 7 14 0 0
BITMAP
08
08
00
06
0C
10
00
1E
66
60
38
0C
CC
F0
ENDCHAR
STARTCHAR uni1E66
ENCODING 7782
SWIDTH 685 0
DWIDTH 10 0
BBX 9 17 0 0
BITMAP
0400
0400
0000
1B00
0E00
0000
1E80
7180
6080
6080
7800
3E00
0F00
8300
8300
C700
BC00
ENDCHAR
STARTCHAR uni1E67
ENCODING 7783
SWIDTH 481 0
DWIDTH 8 0
BBX 7 14 0 0
BITMAP
08
08
00
36
1C
08
00
1E
66
60
38
0C
CC
F0
ENDCHAR
STARTCHAR uni1E68
ENCODING 7784
SWIDTH 685 0
DWIDTH 10 0
BBX 9 17 0 -3
BITMAP
0800
0800
0000
1E80
7180
6080
6080
7800
3E00
0F00
8300
8300
C700
BC00
0000
0800
0800
ENDCHAR
STARTCHAR uni1E69
ENCODING 7785
SWIDTH 481 0
DWIDTH 8 0
BBX 7 13 0 -3
BITMAP
10
10
00
1E
66
60
38
0C
CC
F0
00
20
20
ENDCHAR
STARTCHAR uni1E6A
ENCODING 7786
SWIDTH 722 0
DWIDTH 11 0
BBX 10 14 0 0
BITMAP
0400
0400
0000
FFC0
8C40
8C40
0C00
0C00
1800
1800
1800
1800
1800
3C00
ENDCHAR
STARTCHAR uni1E6B
ENCODING 7787
SWIDTH 407 0
DWIDTH 5 0
BBX 5 12 0 0
BITMAP
20
20
00
60
60
F8
60
60
C0
C0
D0
E0
ENDCHAR
STARTCHAR uni1E6C
ENCODING 7788
SWIDTH 722 0
DWIDTH 11 0
BBX 10 14 0 -3
BITMAP
FFC0
8C40
8C40
0C00
0C00
1800
1800
1800
1800
1800
3C00
0000
0800
0800
ENDCHAR
STARTCHAR uni1E6D
ENCODING 7789
SWIDTH 407 0
DWIDTH 5 0
BBX 5 12 0 -3
BITMAP
60
60
F8
60
60
C0
C0
D0
E0
00
40
40
ENDCHAR
STARTCHAR uni1E6E
ENCODING 7790
SWIDTH 722 0
DWIDTH 11 0
BBX 10 13 0 -2
BITMAP
FFC0
8C40
8C40
0C00
0C00
1800
1800
1800
1800
1800
3C00
0000
3E00
ENDCHAR
STARTCHAR uni1E6F
ENCODING 7791
SWIDTH 407 0
DWIDTH 5 0
BBX 6 11 -1 -2
BITMAP
30
30
7C
30
30
60
60
68
70
00
F8
ENDCHAR
STARTCHAR uni1E70
ENCODING 7792
SWIDTH 722 0
DWIDTH 11 0
BBX 10 15 0 -4
BITMAP
FFC0
8C40
8C40
0C00
0C00
1800
1800
1800
1800
1800
3C00
0000
0800
1C00
3600
ENDCHAR
STARTCHAR uni1E71
ENCODING 7793
SWIDTH 407 0
DWIDTH 5 0
BBX 6 13 -1 -4
BITMAP
30
30
7C
30
30
60
60
68
70
00
20
70
D8
ENDCHAR
STARTCHAR uni1E72
ENCODING 7794
SWIDTH 833 0
DWIDTH 12 0
BBX 10 14 1 -3
BITMAP
F1C0
6080
6080
6080
6080
C180
C100
C100
C100
E300
7E00
0000
2400
2400
ENDCHAR
STARTCHAR uni1E73
ENCODING 7795
SWIDTH 685 0
DWIDTH 10 0
BBX 9 10 0 -3
BITMAP
E300
6300
6300
C600
CE00
F680
6700
0000
2400
2400
ENDCHAR
STARTCHAR uni1E74
ENCODING 7796
SWIDTH 833 0
DWIDTH 12 0
BBX 10 14 1 -3
BITMAP
F1C0
6080
6080
6080
6080
C180
C100
C100
C100
E300
7E00
0000
3400
5800
ENDCHAR
STARTCHAR uni1E75
ENCODING 7797
SWIDTH 685 0
DWIDTH 10 0
BBX 9 10 0 -3
BITMAP
E300
6300
6300
C600
CE00
F680
6700
0000
1A00
2C00
ENDCHAR
STARTCHAR uni1E76
ENCODING 7798
SWIDTH 833 0
DWIDTH 12 0
BBX 10 15 1 -4
BITMAP
F1C0
6080
6080
6080
6080
C180
C100
C100
C100
E300
7E00
0000
0800
1C00
3600
ENDCHAR
STARTCHAR uni1E77
ENCODING 7799
SWIDTH 685 0
DWIDTH 10 0
BBX 9 11 0 -4
BITMAP
E300
6300
6300
C600
CE00
F680
6700
0000
0800
1C00
3600
ENDCHAR
STARTCHAR uni1E78
ENCODING 7800
SWIDTH 833 0
DWIDTH 12 0
BBX 10 18 1 0
BITMAP
0300
0600
0800
0000
1A00
2C00
0000
F1C0
6080
6080
6080
6080
C180
C100
C100
C100
E300
7E00
ENDCHAR
STARTCHAR uni1E79
ENCODING 7801
SWIDTH 685 0
DWIDTH 10 0
BBX 9 14 0 0
BITMAP
0300
0600
0800
0000
1A00
2C00
0000
E300
6300
6300
C600
CE00
F680
6700
ENDCHAR
STARTCHAR uni1E7A
ENCODING 7802
SWIDTH 833 0
DWIDTH 12 0
BBX 10 16 1 0
BITMAP
1200
1200
0000
3E00
0000
F1C0
6080
6080
6080
6080
C180
C100
C100
C100
E300
7E00
ENDCHAR
STARTCHAR uni1E7B
ENCODING 7803
SWIDTH 685 0
DWIDTH 10 0
BBX 9 12 0 0
BITMAP
2400
2400
0000
3E00
0000
E300
6300
6300
C600
CE00
F680
6700
ENDCHAR
STARTCHAR uni1E7C
ENCODING 7804
SWIDTH 741 0
DWIDTH 11 0
BBX 11 14 0 0
BITMAP
0D00
1600
0000
F9E0
60C0
6080
6100
3100
3200
3200
3400
1C00
1800
1800
ENDCHAR
STARTCHAR uni1E7D
ENCODING 7805
SWIDTH 556 0
DWIDTH 8 0
BBX 7 10 0 0
BITMAP
34
58
00
E6
66
62
C2
C4
CC
78
ENDCHAR
STARTCHAR uni1E7E
ENCODING 7806
SWIDTH 741 0
DWIDTH 11 0
BBX 11 14 0 -3
BITMAP
F9E0
60C0
6080
6100
3100
3200
3200
3400
1C00
1800
1800
0000
0800
0800
ENDCHAR
STARTCHAR uni1E7F
ENCODING 7807
SWIDTH 556 0
DWIDTH 8 0
BBX 7 10 0 -3
BITMAP
E6
66
62
C2
C4
CC
78
00
10
10
ENDCHAR
STARTCHAR Wgrave
ENCODING 7808
SWIDTH 944 0
DWIDTH 15 0
BBX 16 15 0 0
BITMAP
0600
0300
0080
0000
FBCF
6186
6184
6388
6388
34D0
34D0
38E0
38E0
30C0
30C0
ENDCHAR
STARTCHAR wgrave
ENCODING 7809
SWIDTH 833 0
DWIDTH 13 0
BBX 12 11 0 0
BITMAP
1800
0C00
0200
0000
E330
6330
6310
C610
C620
CE60
73C0
ENDCHAR
STARTCHAR Wacute
ENCODING 7810
SWIDTH 944 0
DWIDTH 15 0
BBX 16 15 0 0
BITMAP
0060
00C0
0100
0000
FBCF
6186
6184
6388
6388
34D0
34D0
38E0
38E0
30C0
30C0
ENDCHAR
STARTCHAR wacute
ENCODING 7811
SWIDTH 833 0
DWIDTH 13 0
BBX 12 11 0 0
BITMAP
0180
0300
0400
0000
E330
6330
6310
C610
C620
CE60
73C0
ENDCHAR
STARTCHAR Wdieresis
ENCODING 7812
SWIDTH 944 0
DWIDTH 15 0
BBX 16 14 0 0
BITMAP
0240
0240
0000
FBCF
6186
6184
6388
6388
34D0
34D0
38E0
38E0
30C0
30C0
ENDCHAR
STARTCHAR wdieresis
ENCODING 7813
SWIDTH 833 0
DWIDTH 13 0
BBX 12 10 0 0
BITMAP
0900
0900
0000
E330
6330
6310
C610
C620
CE60
73C0
ENDCHAR
STARTCHAR uni1E86
ENCODING 7814
SWIDTH 944 0
DWIDTH 15 0
BBX 16 14 0 0
BITMAP
0100
0100
0000
FBCF
6186
6184
6388
6388
34D0
34D0
38E0
38E0
30C0
30C0
ENDCHAR
STARTCHAR uni1E87
ENCODING 7815
SWIDTH 833 0
DWIDTH 13 0
BBX 12 10 0 0
BITMAP
0200
0200
0000
E330
6330
6310
C610
C620
CE60
73C0
ENDCHAR
STARTCHAR uni1E88
ENCODING 7816
SWIDTH 944 0
DWIDTH 15 0
BBX 16 14 0 -3
BITMAP
FBCF
6186
6184
6388
6388
34D0
34D0
38E0
38E0
30C0
30C0
0000
0200
0200
ENDCHAR
STARTCHAR uni1E89
ENCODING 7817
SWIDTH 833 0
DWIDTH 13 0
BBX 12 10 0 -3
BITMAP
E330
6330
6310
C610
C620
CE60
73C0
0000
0400
0400
ENDCHAR
STARTCHAR uni1E8A
ENCODING 7818
SWIDTH 741 0
DWIDTH 11 0
BBX 12 14 -1 0
BITMAP
0200
0200
0000
3CF0
1860
0C80
0D00
0600
0600
0B00
1300
2180
6180
F3C0
ENDCHAR
STARTCHAR uni1E8B
ENCODING 7819
SWIDTH 574 0
DWIDTH 9 0
BBX 8 10 0 0
BITMAP
08
08
00
33
77
18
18
19
EE
CC
ENDCHAR
STARTCHAR uni1E8C
ENCODING 7820
SWIDTH 741 0
DWIDTH 11 0
BBX 12 14 -1 0
BITMAP
0480
0480
0000
3CF0
1860
0C80
0D00
0600
0600
0B00
1300
2180
6180
F3C0
ENDCHAR
STARTCHAR uni1E8D
ENCODING 7821
SWIDTH 574 0
DWIDTH 9 0
BBX 8 10 0 0
BITMAP
24
24
00
33
77
18
18
19
EE
CC
ENDCHAR
STARTCHAR uni1E8E
ENCODING 7822
SWIDTH 704 0
DWIDTH 9 0
BBX 10 14 0 0
BITMAP
0800
0800
0000
F1C0
6080
3100
3200
1C00
1800
1800
3000
3000
3000
7800
ENDCHAR
STARTCHAR uni1E8F
ENCODING 7823
SWIDTH 519 0
DWIDTH 9 0
BBX 9 13 -1 -3
BITMAP
0800
0800
0000
6180
7180
B100
1A00
1A00
0C00
0C00
0800
D000
E000
ENDCHAR
STARTCHAR uni1E90
ENCODING 7824
SWIDTH 704 0
DWIDTH 10 0
BBX 9 15 0 0
BITMAP
0400
0E00
1B00
0000
7F80
4180
4380
0700
0E00
1C00
3800
7000
E100
C100
FF00
ENDCHAR
STARTCHAR uni1E91
ENCODING 7825
SWIDTH 519 0
DWIDTH 9 0
BBX 8 11 0 0
BITMAP
08
1C
36
00
3B
7E
44
08
31
7E
9C
ENDCHAR
STARTCHAR uni1E92
ENCODING 7826
SWIDTH 704 0
DWIDTH 10 0
BBX 9 14 0 -3
BITMAP
7F80
4180
4380
0700
0E00
1C00
3800
7000
E100
C100
FF00
0000
1000
1000
ENDCHAR
STARTCHAR uni1E93
ENCODING 7827
SWIDTH 519 0
DWIDTH 9 0
BBX 8 10 0 -3
BITMAP
3B
7E
44
08
31
7E
9C
00
10
10
ENDCHAR
STARTCHAR uni1E94
ENCODING 7828
SWIDTH 704 0
DWIDTH 10 0
BBX 9 13 0 -2
BITMAP
7F80
4180
4380
0700
0E00
1C00
3800
7000
E100
C100
FF00
0000
7C00
ENDCHAR
STARTCHAR uni1E95
ENCODING 7829
SWIDTH 519 0
DWIDTH 9 0
BBX 8 9 0 -2
BITMAP
3B
7E
44
08
31
7E
9C
00
7C
ENDCHAR
STARTCHAR uni1E96
ENCODING 7830
SWIDTH 685 0
DWIDTH 10 0
BBX 9 13 0 -2
BITMAP
7000
3000
3000
6000
6600
6F00
7300
C300
C600
C680
C700
0000
3E00
ENDCHAR
STARTCHAR uni1E97
ENCODING 7831
SWIDTH 407 0
DWIDTH 5 0
BBX 5 12 0 0
BITMAP
90
90
00
60
60
F8
60
60
C0
C0
D0
E0
ENDCHAR
STARTCHAR uni1E98
ENCODING 7832
SWIDTH 833 0
DWIDTH 13 0
BBX 12 11 0 0
BITMAP
0600
0900
0600
0000
E330
6330
6310
C610
C620
CE60
73C0
ENDCHAR
STARTCHAR uni1E99
ENCODING 7833
SWIDTH 519 0
DWIDTH 9 0
BBX 9 14 -1 -3
BITMAP
1800
2400
1800
0000
6180
7180
B100
1A00
1A00
0C00
0C00
0800
D000
E000
ENDCHAR
STARTCHAR uni1EA0
ENCODING 7840
SWIDTH 741 0
DWIDTH 11 0
BBX 11 14 -1 -3
BITMAP
0300
0300
0700
0580
0980
0980
1180
1FC0
20C0
60C0
F1E0
0000
0400
0400
ENDCHAR
STARTCHAR uni1EA1
ENCODING 7841
SWIDTH 667 0
DWIDTH 10 0
BBX 9 10 0 -3
BITMAP
3B00
6700
C300
C600
C600
CE80
7700
0000
0800
0800
ENDCHAR
STARTCHAR uni1EA4
ENCODING 7844
SWIDTH 741 0
DWIDTH 11 0
BBX 11 19 -1 0
BITMAP
00C0
0180
0200
0000
0100
0380
06C0
0000
0300
0300
0700
0580
0980
0980
1180
1FC0
20C0
60C0
F1E0
ENDCHAR
STARTCHAR uni1EA5
ENCODING 7845
SWIDTH 667 0
DWIDTH 10 0
BBX 9 15 0 0
BITMAP
0300
0600
0800
0000
0800
1C00
3600
0000
3B00
6700
C300
C600
C600
CE80
7700
ENDCHAR
STARTCHAR uni1EA6
ENCODING 7846
SWIDTH 741 0
DWIDTH 11 0
BBX 11 19 -1 0
BITMAP
0C00
0600
0100
0000
0100
0380
06C0
0000
0300
0300
0700
0580
0980
0980
1180
1FC0
20C0
60C0
F1E0
ENDCHAR
STARTCHAR uni1EA7
ENCODING 7847
SWIDTH 667 0
DWIDTH 10 0
BBX 9 15 0 0
BITMAP
3000
1800
0400
0000
0800
1C00
3600
0000
3B00
6700
C300
C600
C600
CE80
7700
ENDCHAR
STARTCHAR uni1EAA
ENCODING 7850
SWIDTH 741 0
DWIDTH 11 0
BBX 11 18 -1 0
BITMAP
0340
0580
0000
0100
0380
06C0
0000
0300
0300
0700
0580
0980
0980
1180
1FC0
20C0
60C0
F1E0
ENDCHAR
STARTCHAR uni1EAB
ENCODING 7851
SWIDTH 667 0
DWIDTH 10 0
BBX 9 14 0 0
BITMAP
1A00
2C00
0000
0800
1C00
3600
0000
3B00
6700
C300
C600
C600
CE80
7700
ENDCHAR
STARTCHAR uni1EAC
ENCODING 7852
SWIDTH 741 0
DWIDTH 11 0
BBX 11 18 -1 -3
BITMAP
0200
0700
0D80
0000
0300
0300
0700
0580
0980
0980
1180
1FC0
20C0
60C0
F1E0
0000
0400
0400
ENDCHAR
STARTCHAR uni1EAD
ENCODING 7853
SWIDTH 667 0
DWIDTH 10 0
BBX 9 14 0 -3
BITMAP
0800
1C00
3600
0000
3B00
6700
C300
C600
C600
CE80
7700
0000
0800
0800
ENDCHAR
STARTCHAR uni1EAE
ENCODING 7854
SWIDTH 741 0
DWIDTH 11 0
BBX 11 19 -1 0
BITMAP
0180
0300
0400
0000
0880
0880
0700
0000
0300
0300
0700
0580
0980
0980
1180
1FC0
20C0
60C0
F1E0
ENDCHAR
STARTCHAR uni1EAF
ENCODING 7855
SWIDTH 667 0
DWIDTH 10 0
BBX 9 15 0 0
BITMAP
0300
0600
0800
0000
2200
2200
1C00
0000
3B00
6700
C300
C600
C600
CE80
7700
ENDCHAR
STARTCHAR uni1EB0
ENCODING 7856
SWIDTH 741 0
DWIDTH 11 0
BBX 11 19 -1 0
BITMAP
1800
0C00
0200
0000
0880
0880
0700
0000
0300
0300
0700
0580
0980
0980
1180
1FC0
20C0
60C0
F1E0
ENDCHAR
STARTCHAR uni1EB1
ENCODING 7857
SWIDTH 667 0
DWIDTH 10 0
BBX 9 15 0 0
BITMAP
3000
1800
0400
0000
2200
2200
1C00
0000
3B00
6700
C300
C600
C600
CE80
7700
ENDCHAR
STARTCHAR uni1EB4
ENCODING 7860
SWIDTH 741 0
DWIDTH 11 0
BBX 11 18 -1 0
BITMAP
0680
0B00
0000
0880
0880
0700
0000
0300
0300
0700
0580
0980
0980
1180
1FC0
20C0
60C0
F1E0
ENDCHAR
STARTCHAR uni1EB5
ENCODING 7861
SWIDTH 667 0
DWIDTH 10 0
BBX 9 14 0 0
BITMAP
1A00
2C00
0000
2200
2200
1C00
0000
3B00
6700
C300
C600
C600
CE80
7700
ENDCHAR
STARTCHAR uni1EB6
ENCODING 7862
SWIDTH 741 0
DWIDTH 11 0
BBX 11 18 -1 -3
BITMAP
0880
0880
0700
0000
0300
0300
0700
0580
0980
0980
1180
1FC0
20C0
60C0
F1E0
0000
0400
0400
ENDCHAR
STARTCHAR uni1EB7
ENCODING 7863
SWIDTH 667 0
DWIDTH 10 0
BBX 9 14 0 -3
BITMAP
2200
2200
1C00
0000
3B00
6700
C300
C600
C600
CE80
7700
0000
0800
0800
ENDCHAR
STARTCHAR uni1EB8
ENCODING 7864
SWIDTH 741 0
DWIDTH 10 0
BBX 9 14 0 -3
BITMAP
7F80
3080
3080
3200
3200
7E00
6200
6200
6100
6100
FF00
0000
0800
0800
ENDCHAR
STARTCHAR uni1EB9
ENCODING 7865
SWIDTH 519 0
DWIDTH 8 0
BBX 7 10 0 -3
BITMAP
3C
66
C6
FC
C0
C4
78
00
10
10
ENDCHAR
STARTCHAR uni1EBC
ENCODING 7868
SWIDTH 741 0
DWIDTH 10 0
BBX 9 14 0 0
BITMAP
0D00
1600
0000
7F80
3080
3080
3200
3200
7E00
6200
6200
6100
6100
FF00
ENDCHAR
STARTCHAR uni1EBD
ENCODING 7869
SWIDTH 519 0
DWIDTH 8 0
BBX 7 10 0 0
BITMAP
1A
2C
00
3C
66
C6
FC
C0
C4
78
ENDCHAR
STARTCHAR uni1EBE
ENCODING 7870
SWIDTH 741 0
DWIDTH 10 0
BBX 9 19 0 0
BITMAP
0300
0600
0800
0000
0400
0E00
1B00
0000
7F80
3080
3080
3200
3200
7E00
6200
6200
6100
6100
FF00
ENDCHAR
STARTCHAR uni1EBF
ENCODING 7871
SWIDTH 519 0
DWIDTH 8 0
BBX 7 15 0 0
BITMAP
06
0C
10
00
10
38
6C
00
3C
66
C6
FC
C0
C4
78
ENDCHAR
STARTCHAR uni1EC0
ENCODING 7872
SWIDTH 741 0
DWIDTH 10 0
BBX 9 19 0 0
BITMAP
3000
1800
0400
0000
0400
0E00
1B00
0000
7F80
3080
3080
3200
3200
7E00
6200
6200
6100
6100
FF00
ENDCHAR
STARTCHAR uni1EC1
ENCODING 7873
SWIDTH 519 0
DWIDTH 8 0
BBX 7 15 0 0
BITMAP
60
30
08
00
10
38
6C
00
3C
66
C6
FC
C0
C4
78
ENDCHAR
STARTCHAR uni1EC4
ENCODING 7876
SWIDTH 741 0
DWIDTH 10 0
BBX 9 18 0 0
BITMAP
0D00
1600
0000
0400
0E00
1B00
0000
7F80
3080
3080
3200
3200
7E00
6200
6200
6100
6100
FF00
ENDCHAR
STARTCHAR uni1EC5
ENCODING 7877
SWIDTH 519 0
DWIDTH 8 0
BBX 7 14 0 0
BITMAP
34
58
00
10
38
6C
00
3C
66
C6
FC
C0
C4
78
ENDCHAR
STARTCHAR uni1EC6
ENCODING 7878
SWIDTH 741 0
DWIDTH 10 0
BBX 9 18 0 -3
BITMAP
0800
1C00
3600
0000
7F80
3080
3080
3200
3200
7E00
6200
6200
6100
6100
FF00
0000
0800
0800
ENDCHAR
STARTCHAR uni1EC7
ENCODING 7879
SWIDTH 519 0
DWIDTH 8 0
BBX 7 14 0 -3
BITMAP
10
38
6C
00
3C
66
C6
FC
C0
C4
78
00
10
10
ENDCHAR
STARTCHAR uni1ECA
ENCODING 7882
SWIDTH 444 0
DWIDTH 6 0
BBX 5 14 0 -3
BITMAP
78
30
30
30
30
60
60
60
60
60
F0
00
20
20
ENDCHAR
STARTCHAR uni1ECB
ENCODING 7883
SWIDTH 389 0
DWIDTH 5 0
BBX 4 13 0 -3
BITMAP
30
30
00
E0
60
60
C0
C0
D0
E0
00
40
40
ENDCHAR
STARTCHAR uni1ECC
ENCODING 7884
SWIDTH 833 0
DWIDTH 12 0
BBX 11 14 0 -3
BITMAP
0F80
30C0
6060
6060
C060
C060
C060
C0C0
C0C0
6180
3E00
0000
0400
0400
ENDCHAR
STARTCHAR uni1ECD
ENCODING 7885
SWIDTH 574 0
DWIDTH 8 0
BBX 7 10 0 -3
BITMAP
3C
66
C6
C6
C6
CC
78
00
10
10
ENDCHAR
STARTCHAR uni1ED0
ENCODING 7888
SWIDTH 833 0
DWIDTH 12 0
BBX 11 19 0 0
BITMAP
0180
0300
0400
0000
0200
0700
0D80
0000
0F80
30C0
6060
6060
C060
C060
C060
C0C0
C0C0
6180
3E00
ENDCHAR
STARTCHAR uni1ED1
ENCODING 7889
SWIDTH 574 0
DWIDTH 8 0
BBX 7 15 0 0
BITMAP
06
0C
10
00
08
1C
36
00
3C
66
C6
C6
C6
CC
78
ENDCHAR
STARTCHAR uni1ED2
ENCODING 7890
SWIDTH 833 0
DWIDTH 12 0
BBX 11 19 0 0
BITMAP
1800
0C00
0200
0000
0200
0700
0D80
0000
0F80
30C0
6060
6060
C060
C060
C060
C0C0
C0C0
6180
3E00
ENDCHAR
STARTCHAR uni1ED3
ENCODING 7891
SWIDTH 574 0
DWIDTH 8 0
BBX 7 15 0 0
BITMAP
60
30
08
00
08
1C
36
00
3C
66
C6
C6
C6
CC
78
ENDCHAR
STARTCHAR uni1ED6
ENCODING 7894
SWIDTH 833 0
DWIDTH 12 0
BBX 11 18 0 0
BITMAP
0680
0B00
0000
0200
0700
0D80
0000
0F80
30C0
6060
6060
C060
C060
C060
C0C0
C0C0
6180
3E00
ENDCHAR
STARTCHAR uni1ED7
ENCODING 7895
SWIDTH 574 0
DWIDTH 8 0
BBX 7 14 0 0
BITMAP
1A
2C
00
08
1C
36
00
3C
66
C6
C6
C6
CC
78
ENDCHAR
STARTCHAR uni1ED8
ENCODING 7896
SWIDTH 833 0
DWIDTH 12 0
BBX 11 18 0 -3
BITMAP
0400
0E00
1B00
0000
0F80
30C0
6060
6060
C060
C060
C060
C0C0
C0C0
6180
3E00
0000
0400
0400
ENDCHAR
STARTCHAR uni1ED9
ENCODING 7897
SWIDTH 574 0
DWIDTH 8 0
BBX 7 14 0 -3
BITMAP
10
38
6C
00
3C
66
C6
C6
C6
CC
78
00
10
10
ENDCHAR
STARTCHAR uni1EDA
ENCODING 7898
SWIDTH 833 0
DWIDTH 12 0
BBX 13 15 0 0
BITMAP
00C0
0180
0200
0000
0F98
30D8
6068
6070
C060
C060
C060
C0C0
C0C0
6180
3E00
ENDCHAR
STARTCHAR uni1EDB
ENCODING 7899
SWIDTH 574 0
DWIDTH 8 0
BBX 10 11 0 0
BITMAP
0300
0600
0800
0000
3CC0
66C0
C640
C680
C700
CC00
7800
ENDCHAR
STARTCHAR uni1EDC
ENCODING 7900
SWIDTH 833 0
DWIDTH 12 0
BBX 13 15 0 0
BITMAP
0C00
0600
0100
0000
0F98
30D8
6068
6070
C060
C060
C060
C0C0
C0C0
6180
3E00
ENDCHAR
STARTCHAR uni1EDD
ENCODING 7901
SWIDTH 574 0
DWIDTH 8 0
BBX 10 11 0 0
BITMAP
3000
1800
0400
0000
3CC0
66C0
C640
C680
C700
CC00
7800
ENDCHAR
STARTCHAR uni1EE0
ENCODING 7904
SWIDTH 833 0
DWIDTH 12 0
BBX 13 14 0 0
BITMAP
0340
0580
0000
0F98
30D8
6068
6070
C060
C060
C060
C0C0
C0C0
6180
3E00
ENDCHAR
STARTCHAR uni1EE1
ENCODING 7905
SWIDTH 574 0
DWIDTH 8 0
BBX 10 10 0 0
BITMAP
0D00
1600
0000
3CC0
66C0
C640
C680
C700
CC00
7800
ENDCHAR
STARTCHAR uni1EE2
ENCODING 7906
SWIDTH 833 0
DWIDTH 12 0
BBX 13 14 0 -3
BITMAP
0F98
30D8
6068
6070
C060
C060
C060
C0C0
C0C0
6180
3E00
0000
0400
0400
ENDCHAR
STARTCHAR uni1EE3
ENCODING 7907
SWIDTH 574 0
DWIDTH 8 0
BBX 10 10 0 -3
BITMAP
3CC0
66C0
C640
C680
C700
CC00
7800
0000
1000
1000
ENDCHAR
STARTCHAR uni1EE4
ENCODING 7908
SWIDTH 833 0
DWIDTH 12 0
BBX 10 14 1 -3
BITMAP
F1C0
6080
6080
6080
6080
C180
C100
C100
C100
E300
7E00
0000
0800
0800
ENDCHAR
STARTCHAR uni1EE5
ENCODING 7909
SWIDTH 685 0
DWIDTH 10 0
BBX 9 10 0 -3
BITMAP
E300
6300
6300
C600
CE00
F680
6700
0000
0800
0800
ENDCHAR
STARTCHAR uni1EE8
ENCODING 7912
SWIDTH 833 0
DWIDTH 12 0
BBX 12 15 1 0
BITMAP
0180
0300
0400
0000
F1F0
60B0
6090
60A0
60C0
C180
C100
C100
C100
E300
7E00
ENDCHAR
STARTCHAR uni1EE9
ENCODING 7913
SWIDTH 685 0
DWIDTH 10 0
BBX 11 11 0 0
BITMAP
0180
0300
0400
0000
E360
6360
6320
C640
CE80
F680
6700
ENDCHAR
STARTCHAR uni1EEA
ENCODING 7914
SWIDTH 833 0
DWIDTH 12 0
BBX 12 15 1 0
BITMAP
1800
0C00
0200
0000
F1F0
60B0
6090
60A0
60C0
C180
C100
C100
C100
E300
7E00
ENDCHAR
STARTCHAR uni1EEB
ENCODING 7915
SWIDTH 685 0
DWIDTH 10 0
BBX 11 11 0 0
BITMAP
1800
0C00
0200
0000
E360
6360
6320
C640
CE80
F680
6700
ENDCHAR
STARTCHAR uni1EEE
ENCODING 7918
SWIDTH 833 0
DWIDTH 12 0
BBX 12 14 1 0
BITMAP
0680
0B00
0000
F1F0
60B0
6090
60A0
60C0
C180
C100
C100
C100
E300
7E00
ENDCHAR
STARTCHAR uni1EEF
ENCODING 7919
SWIDTH 685 0
DWIDTH 10 0
BBX 11 10 0 0
BITMAP
0D00
1600
0000
E360
6360
6320
C640
CE80
F680
6700
ENDCHAR
STARTCHAR uni1EF0
ENCODING 7920
SWIDTH 833 0
DWIDTH 12 0
BBX 12 14 1 -3
BITMAP
F1F0
60B0
6090
60A0
60C0
C180
C100
C100
C100
E300
7E00
0000
0800
0800
ENDCHAR
STARTCHAR uni1EF1
ENCODING 7921
SWIDTH 685 0
DWIDTH 10 0
BBX 11 10 0 -3
BITMAP
E360
6360
6320
C640
CE80
F680
6700
0000
0800
0800
ENDCHAR
STARTCHAR Ygrave
ENCODING 7922
SWIDTH 704 0
DWIDTH 9 0
BBX 10 15 0 0
BITMAP
3000
1800
0400
0000
F1C0
6080
3100
3200
1C00
1800
1800
3000
3000
3000
7800
ENDCHAR
STARTCHAR ygrave
ENCODING 7923
SWIDTH 519 0
DWIDTH 9 0
BBX 9 14 -1 -3
BITMAP
6000
3000
0800
0000
6180
7180
B100
1A00
1A00
0C00
0C00
0800
D000
E000
ENDCHAR
STARTCHAR uni1EF4
ENCODING 7924
SWIDTH 704 0
DWIDTH 9 0
BBX 10 14 0 -3
BITMAP
F1C0
6080
3100
3200
1C00
1800
1800
3000
3000
3000
7800
0000
1000
1000
ENDCHAR
STARTCHAR uni1EF5
ENCODING 7925
SWIDTH 519 0
DWIDTH 9 0
BBX 9 13 -1 -6
BITMAP
6180
7180
B100
1A00
1A00
0C00
0C00
0800
D000
E000
0000
2000
2000
ENDCHAR
STARTCHAR uni1EF8
ENCODING 7928
SWIDTH 704 0
DWIDTH 9 0
BBX 10 14 0 0
BITMAP
1A00
2C00
0000
F1C0
6080
3100
3200
1C00
1800
1800
3000
3000
3000
7800
ENDCHAR
STARTCHAR uni1EF9
ENCODING 7929
SWIDTH 519 0
DWIDTH 9 0
BBX 9 13 -1 -3
BITMAP
1A00
2C00
0000
6180
7180
B100
1A00
1A00
0C00
0C00
0800
D000
E000
ENDCHAR
STARTCHAR uni2000
ENCODING 8192
SWIDTH 500 0
DWIDTH 7 0
BBX 1 1 0 0
BITMAP
00
ENDCHAR
STARTCHAR uni2001
ENCODING 8193
SWIDTH 1000 0
DWIDTH 15 0
BBX 1 1 0 0
BITMAP
00
ENDCHAR
STARTCHAR uni2002
ENCODING 8194
SWIDTH 500 0
DWIDTH 7 0
BBX 1 1 0 0
BITMAP
00
ENDCHAR
STARTCHAR uni2003
ENCODING 8195
SWIDTH 1000 0
DWIDTH 15 0
BBX 1 1 0 0
BITMAP
00
ENDCHAR
STARTCHAR uni2004
ENCODING 8196
SWIDTH 333 0
DWIDTH 5 0
BBX 1 1 0 0
BITMAP
00
ENDCHAR
STARTCHAR uni2005
ENCODING 8197
SWIDTH 250 0
DWIDTH 4 0
BBX 1 1 0 0
BITMAP
00
ENDCHAR
STARTCHAR uni2006
ENCODING 8198
SWIDTH 167 0
DWIDTH 2 0
BBX 1 1 0 0
BITMAP
00
ENDCHAR
STARTCHAR uni2007
ENCODING 8199
SWIDTH 574 0
DWIDTH 8 0
BBX 1 1 0 0
BITMAP
00
ENDCHAR
STARTCHAR uni2008
ENCODING 8200
SWIDTH 287 0
DWIDTH 3 0
BBX 1 1 0 0
BITMAP
00
ENDCHAR
STARTCHAR uni2009
ENCODING 8201
SWIDTH 200 0
DWIDTH 3 0
BBX 1 1 0 0
BITMAP
00
ENDCHAR
STARTCHAR uni200A
ENCODING 8202
SWIDTH 100 0
DWIDTH 1 0
BBX 1 1 0 0
BITMAP
00
ENDCHAR
STARTCHAR uni200B
ENCODING 8203
SWIDTH 0 0
DWIDTH 0 0
BBX 1 1 0 0
BITMAP
00
ENDCHAR
STARTCHAR uni2010
ENCODING 8208
SWIDTH 333 0
DWIDTH 5 0
BBX 4 2 0 3
BITMAP
F0
F0
ENDCHAR
STARTCHAR uni2011
ENCODING 8209
SWIDTH 333 0
DWIDTH 5 0
BBX 4 2 0 3
BITMAP
F0
F0
ENDCHAR
STARTCHAR figuredash
ENCODING 8210
SWIDTH 500 0
DWIDTH 7 0
BBX 6 1 0 4
BITMAP
FC
ENDCHAR
STARTCHAR endash
ENCODING 8211
SWIDTH 500 0
DWIDTH 7 0
BBX 6 1 0 4
BITMAP
FC
ENDCHAR
STARTCHAR emdash
ENCODING 8212
SWIDTH 1000 0
DWIDTH 15 0
BBX 14 1 0 4
BITMAP
FFFC
ENDCHAR
STARTCHAR afii00208
ENCODING 8213
SWIDTH 1000 0
DWIDTH 15 0
BBX 14 1 0 4
BITMAP
FFFC
ENDCHAR
STARTCHAR quoteleft
ENCODING 8216
SWIDTH 259 0
DWIDTH 4 0
BBX 3 5 1 6
BITMAP
20
40
80
C0
C0
ENDCHAR
STARTCHAR quoteright
ENCODING 8217
SWIDTH 259 0
DWIDTH 4 0
BBX 3 5 0 6
BITMAP
60
60
20
40
80
ENDCHAR
STARTCHAR quotesinglbase
ENCODING 8218
SWIDTH 259 0
DWIDTH 4 0
BBX 3 5 -1 -3
BITMAP
60
60
20
40
80
ENDCHAR
STARTCHAR quotereversed
ENCODING 8219
SWIDTH 259 0
DWIDTH 4 0
BBX 3 5 0 6
BITMAP
C0
C0
80
40
20
ENDCHAR
STARTCHAR quotedblleft
ENCODING 8220
SWIDTH 481 0
DWIDTH 7 0
BBX 6 5 0 6
BITMAP
24
48
90
D8
D8
ENDCHAR
STARTCHAR quotedblright
ENCODING 8221
SWIDTH 481 0
DWIDTH 7 0
BBX 6 5 0 6
BITMAP
6C
6C
24
48
90
ENDCHAR
STARTCHAR quotedblbase
ENCODING 8222
SWIDTH 481 0
DWIDTH 7 0
BBX 6 5 -1 -3
BITMAP
6C
6C
24
48
90
ENDCHAR
STARTCHAR uni201F
ENCODING 8223
SWIDTH 481 0
DWIDTH 7 0
BBX 6 5 0 6
BITMAP
D8
D8
90
48
24
ENDCHAR
STARTCHAR dagger
ENCODING 8224
SWIDTH 500 0
DWIDTH 8 0
BBX 7 13 0 -2
BITMAP
38
10
92
FE
92
10
10
30
20
20
20
20
20
ENDCHAR
STARTCHAR daggerdbl
ENCODING 8225
SWIDTH 500 0
DWIDTH 9 0
BBX 8 13 0 -2
BITMAP
1C
08
49
7F
49
08
18
10
92
FE
92
10
10
ENDCHAR
STARTCHAR bullet
ENCODING 8226
SWIDTH 606 0
DWIDTH 8 0
BBX 5 5 1 3
BITMAP
70
F8
F8
F8
70
ENDCHAR
STARTCHAR ellipsis
ENCODING 8230
SWIDTH 1000 0
DWIDTH 15 0
BBX 12 2 0 0
BITMAP
C630
C630
ENDCHAR
STARTCHAR perthousand
ENCODING 8240
SWIDTH 1167 0
DWIDTH 19 0
BBX 18 12 0 -1
BITMAP
308000
6F8000
C90000
C90000
D20000
626180
04D340
059640
099640
09A680
10C300
100000
ENDCHAR
STARTCHAR guilsinglleft
ENCODING 8249
SWIDTH 278 0
DWIDTH 6 0
BBX 5 6 0 1
BITMAP
08
30
60
C0
60
10
ENDCHAR
STARTCHAR guilsinglright
ENCODING 8250
SWIDTH 278 0
DWIDTH 6 0
BBX 5 6 0 1
BITMAP
40
30
18
30
60
80
ENDCHAR
STARTCHAR fraction
ENCODING 8260
SWIDTH 167 0
DWIDTH 3 0
BBX 6 12 -2 -1
BITMAP
04
04
08
08
10
10
20
20
40
40
80
80
ENDCHAR
STARTCHAR oneinferior
ENCODING 8321
SWIDTH 344 0
DWIDTH 5 0
BBX 3 6 1 -3
BITMAP
20
E0
60
40
40
E0
ENDCHAR
STARTCHAR twoinferior
ENCODING 8322
SWIDTH 344 0
DWIDTH 5 0
BBX 5 6 0 -3
BITMAP
70
58
30
60
C0
F8
ENDCHAR
STARTCHAR threeinferior
ENCODING 8323
SWIDTH 344 0
DWIDTH 5 0
BBX 6 6 -1 -3
BITMAP
38
0C
38
18
98
70
ENDCHAR
STARTCHAR uni20A5
ENCODING 8357
SWIDTH 944 0
DWIDTH 15 0
BBX 14 11 0 -2
BITMAP
0080
0080
E7B0
6F78
7398
6318
C630
C634
C638
0400
0400
ENDCHAR
STARTCHAR uni20A6
ENCODING 8358
SWIDTH 852 0
DWIDTH 13 0
BBX 12 11 0 0
BITMAP
7870
3820
3C20
3FE0
2E60
2740
7FC0
43C0
41C0
41C0
E0C0
ENDCHAR
STARTCHAR uni20A9
ENCODING 8361
SWIDTH 944 0
DWIDTH 15 0
BBX 16 11 0 0
BITMAP
FBCF
6186
6184
6FF8
6388
34D0
3FF0
38E0
38E0
30C0
30C0
ENDCHAR
STARTCHAR Euro
ENCODING 8364
SWIDTH 759 0
DWIDTH 11 0
BBX 12 11 -2 0
BITMAP
03D0
0C30
1810
FF10
3000
3000
FF00
3000
3020
1860
0F80
ENDCHAR
STARTCHAR uni20AD
ENCODING 8365
SWIDTH 778 0
DWIDTH 12 0
BBX 11 11 0 0
BITMAP
79E0
3080
3100
3200
3400
FFE0
7700
6300
6380
61C0
F3E0
ENDCHAR
STARTCHAR uni2103
ENCODING 8451
SWIDTH 1139 0
DWIDTH 17 0
BBX 15 11 1 0
BITMAP
607A
9186
9302
6302
0600
0600
0600
0600
0604
030C
01F0
ENDCHAR
STARTCHAR uni2109
ENCODING 8457
SWIDTH 1084 0
DWIDTH 16 0
BBX 14 11 1 0
BITMAP
63FC
9184
9184
6190
0190
03F0
0310
0310
0300
0300
0780
ENDCHAR
STARTCHAR trademark
ENCODING 8482
SWIDTH 950 0
DWIDTH 16 0
BBX 15 6 0 5
BITMAP
FB8E
A98C
2154
2154
2124
73AE
ENDCHAR
STARTCHAR uni212A
ENCODING 8490
SWIDTH 778 0
DWIDTH 12 0
BBX 11 11 0 0
BITMAP
79E0
3080
3100
3200
3400
3E00
7700
6300
6380
61C0
F3E0
ENDCHAR
STARTCHAR uni212B
ENCODING 8491
SWIDTH 741 0
DWIDTH 11 0
BBX 11 15 -1 0
BITMAP
0300
0480
0480
0300
0200
0300
0700
0500
0980
0980
1180
1FC0
20C0
60C0
F1E0
ENDCHAR
STARTCHAR uni2132
ENCODING 8498
SWIDTH 704 0
DWIDTH 10 0
BBX 9 11 0 0
BITMAP
0780
0300
0300
2300
2300
3F00
2600
2600
8600
8600
FF00
ENDCHAR
STARTCHAR minus
ENCODING 8722
SWIDTH 606 0
DWIDTH 8 0
BBX 7 1 0 4
BITMAP
FE
ENDCHAR
STARTCHAR fraction
ENCODING 8725
SWIDTH 167 0
DWIDTH 3 0
BBX 6 12 -2 -1
BITMAP
04
04
08
08
10
10
20
20
40
40
80
80
ENDCHAR
STARTCHAR periodcentered
ENCODING 8729
SWIDTH 287 0
DWIDTH 5 0
BBX 2 3 1 3
BITMAP
C0
C0
C0
ENDCHAR
STARTCHAR uni2236
ENCODING 8758
SWIDTH 287 0
DWIDTH 4 0
BBX 3 7 0 0
BITMAP
60
60
00
00
00
C0
C0
ENDCHAR
STARTCHAR uni2259
ENCODING 8793
SWIDTH 606 0
DWIDTH 9 0
BBX 8 8 0 3
BITMAP
08
1C
36
00
FF
00
00
FF
ENDCHAR
STARTCHAR uni225A
ENCODING 8794
SWIDTH 606 0
DWIDTH 9 0
BBX 8 8 0 3
BITMAP
36
1C
08
00
FF
00
00
FF
ENDCHAR
STARTCHAR notequal
ENCODING 8800
SWIDTH 606 0
DWIDTH 9 0
BBX 8 11 0 0
BITMAP
04
04
0C
08
FF
18
10
FF
30
20
20
ENDCHAR
STARTCHAR equivalence
ENCODING 8801
SWIDTH 606 0
DWIDTH 9 0
BBX 8 5 0 2
BITMAP
FF
00
FF
00
FF
ENDCHAR
STARTCHAR uni2262
ENCODING 8802
SWIDTH 606 0
DWIDTH 9 0
BBX 8 11 0 -1
BITMAP
04
04
0C
FF
08
FF
10
FF
30
20
20
ENDCHAR
STARTCHAR lessequal
ENCODING 8804
SWIDTH 606 0
DWIDTH 9 0
BBX 8 11 0 -2
BITMAP
01
07
1C
70
C0
70
1C
07
01
00
FF
ENDCHAR
STARTCHAR greaterequal
ENCODING 8805
SWIDTH 606 0
DWIDTH 9 0
BBX 8 11 0 -2
BITMAP
80
E0
38
0E
03
0E
38
E0
80
00
FF
ENDCHAR
STARTCHAR uni226E
ENCODING 8814
SWIDTH 606 0
DWIDTH 9 0
BBX 8 11 0 -1
BITMAP
04
05
0F
1C
78
D8
70
1C
37
21
20
ENDCHAR
STARTCHAR uni226F
ENCODING 8815
SWIDTH 606 0
DWIDTH 9 0
BBX 8 11 0 -1
BITMAP
04
84
EC
38
0E
1B
1E
38
F0
A0
20
ENDCHAR
STARTCHAR uni2270
ENCODING 8816
SWIDTH 606 0
DWIDTH 9 0
BBX 8 11 0 -2
BITMAP
05
07
1C
78
C8
78
1C
17
31
20
FF
ENDCHAR
STARTCHAR uni2271
ENCODING 8817
SWIDTH 606 0
DWIDTH 9 0
BBX 8 11 0 -2
BITMAP
84
E4
3C
0E
0B
1E
38
F0
B0
20
FF
ENDCHAR
STARTCHAR fi
ENCODING -1
SWIDTH 685 0
DWIDTH 10 0
BBX 9 14 0 -3
BITMAP
0F00
1300
3000
3000
FF00
6300
6300
6600
6600
C680
C700
C000
C000
8000
ENDCHAR
STARTCHAR fl
ENCODING -1
SWIDTH 685 0
DWIDTH 10 0
BBX 9 14 0 -3
BITMAP
0F80
1180
3180
3300
FB00
6300
6300
6600
6600
C680
C700
C000
C000
8000
ENDCHAR
ENDFONT
